<svg width="60" height="63" viewBox="0 0 60 63" fill="none" xmlns="http://www.w3.org/2000/svg">
<g id="Frame 2121">
<path id="Vector" d="M52.6284 51.9276C27.1077 64.2291 11.2693 53.9368 1.13062 47.6855C0.503246 47.2915 -0.563077 47.7776 0.362104 48.8539C3.7398 53.002 14.8092 63 29.2581 63C43.7168 63 52.3185 55.0094 53.3945 53.6155C54.4633 52.2334 53.7083 51.471 52.6282 51.9276H52.6284ZM59.7958 47.9186C59.1105 47.0147 55.6285 46.8462 53.4372 47.1188C51.2425 47.3836 47.9482 48.7421 48.2346 49.5578C48.3816 49.8634 48.6815 49.7263 50.1892 49.589C51.7011 49.4363 55.9363 48.8949 56.8188 50.0633C57.7054 51.2399 55.468 56.8445 55.0593 57.7484C54.6645 58.6522 55.2102 58.8853 55.9518 58.2833C56.6832 57.6815 58.0073 56.1231 58.8959 53.9176C59.7784 51.7002 60.3168 48.6068 59.7958 47.9186Z" fill="#FF9900"/>
<path id="Vector_2" fill-rule="evenodd" clip-rule="evenodd" d="M35.6542 26.259C35.6542 29.4632 35.7366 32.1354 34.089 34.9809C32.7591 37.2947 30.6527 38.7174 28.2991 38.7174C25.0863 38.7174 23.2152 36.3113 23.2152 32.7601C23.2152 25.7499 29.6051 24.4775 35.6542 24.4775V26.259ZM44.0918 46.306C43.5386 46.7918 42.7384 46.8266 42.1148 46.5026C39.3376 44.2354 38.8432 43.1828 37.3134 41.0195C32.7239 45.6236 29.4759 47 23.5213 47C16.484 47 11 42.7314 11 34.1829C11 27.5084 14.6836 22.9621 19.9201 20.7413C24.4627 18.7745 30.8057 18.4275 35.6542 17.884V16.8197C35.6542 14.8646 35.807 12.5511 34.6421 10.8623C33.6182 9.34689 31.6647 8.72219 29.9465 8.72219C26.7575 8.72219 23.9095 10.33 23.2152 13.6615C23.0738 14.4021 22.5209 15.1309 21.7678 15.1655L13.6477 14.3096C12.9653 14.159 12.2122 13.6155 12.4005 12.5857C14.2716 2.91528 23.1562 0 31.1113 0C35.1831 0 40.5022 1.06434 43.715 4.09519C47.7868 7.83146 47.3984 12.8171 47.3984 18.2424V31.0596C47.3984 34.9117 49.0224 36.6005 50.5521 38.6828C51.0934 39.4231 51.2112 40.3141 50.5286 40.869C48.8222 42.2686 45.786 44.8716 44.1151 46.3292L44.0915 46.306" fill="black"/>
</g>
</svg>
