<svg width="78" height="78" viewBox="0 0 78 78" fill="none" xmlns="http://www.w3.org/2000/svg">
<g id="bigcommerce-1 1" clip-path="url(#clip0_1003_1986)">
<circle id="Ellipse 23" cx="38.693" cy="38.693" r="38.693" fill="#33313F"/>
<g id="Group">
<path id="Vector" d="M37.4017 39.2976H43.0472C44.6528 39.2976 45.6686 38.4142 45.6686 36.9947C45.6686 35.6562 44.6528 34.6919 43.0472 34.6919H37.4017C37.2147 34.6919 37.0547 34.852 37.0547 35.0139V38.9756C37.0799 39.1627 37.2129 39.2976 37.4017 39.2976ZM37.4017 48.4262H43.2342C45.0268 48.4262 46.0965 47.5159 46.0965 45.9093C46.0965 44.5168 45.0807 43.3923 43.2342 43.3923H37.4017C37.2147 43.3923 37.0547 43.5525 37.0547 43.7144V48.079C37.0799 48.2931 37.2129 48.4262 37.4017 48.4262Z" fill="white"/>
<path id="Vector_2" d="M58.0552 13.9175L41.3595 30.57H44.0888C48.3427 30.57 50.858 33.247 50.858 36.1652C50.858 38.468 49.3064 40.1538 47.6469 40.904C47.379 41.012 47.379 41.3862 47.6739 41.4923C49.5995 42.2425 50.9641 44.2503 50.9641 46.6054C50.9641 49.9247 48.7437 52.5748 44.4358 52.5748H32.6107C32.4237 52.5748 32.2637 52.4147 32.2637 52.2527V39.6428L13.9355 57.9037C13.6945 58.1448 13.8546 58.573 14.2034 58.573H58.2692C58.4292 58.573 58.564 58.4398 58.564 58.2779V14.1586C58.6431 13.8635 58.2692 13.7034 58.0552 13.9175Z" fill="white"/>
</g>
</g>
<defs>
<clipPath id="clip0_1003_1986">
<rect width="77.386" height="77.386" fill="white"/>
</clipPath>
</defs>
</svg>
