<svg width="88" height="31" viewBox="0 0 88 31" fill="none" xmlns="http://www.w3.org/2000/svg">
<g id="eBay" clip-path="url(#clip0_1003_2009)">
<path id="e" d="M11.3417 6.70093C5.17012 6.70093 0.0273438 8.98577 0.0273438 15.879C0.0273438 21.34 3.48549 24.779 11.5011 24.779C20.9358 24.779 21.5406 19.3556 21.5406 19.3556L16.969 19.3556C16.969 19.3556 15.9888 22.2759 11.2222 22.2759C7.3399 22.2759 4.54759 19.9873 4.54759 16.7795L22.0187 16.7795L22.0187 14.7665C22.0187 11.593 19.71 6.70093 11.3417 6.70093ZM11.1824 9.27358C14.8779 9.27358 17.3973 11.2492 17.3973 14.2103L4.64871 14.2103C4.64871 11.0667 7.93715 9.27358 11.1824 9.27358Z" fill="#E53238"/>
<path id="b" d="M22.0168 0.0270996L22.0168 21.3184C22.0168 22.5269 21.918 24.2239 21.918 24.2239L26.2783 24.2239C26.2783 24.2239 26.4348 23.0051 26.4348 21.8913C26.4348 21.8913 28.5891 24.8323 34.4467 24.8323C40.615 24.8323 44.8049 21.0952 44.8049 15.7411C44.8049 10.7602 40.9563 6.75423 34.4566 6.75423C28.3701 6.75423 26.4788 9.62238 26.4788 9.62238L26.4788 0.0270996L22.0168 0.0270996ZM33.3312 9.38771C37.5199 9.38771 40.1835 12.1006 40.1835 15.7411C40.1835 19.6449 37.1072 22.1988 33.3611 22.1988C28.8904 22.1988 26.4788 19.1527 26.4788 15.7759C26.4788 12.6293 28.6428 9.38771 33.3312 9.38771Z" fill="#0064D2"/>
<path id="a" d="M55.6425 6.70093C46.3578 6.70093 45.7623 11.1373 45.7623 11.8462L50.3837 11.8462C50.3837 11.8462 50.626 9.25619 55.3238 9.25619C58.3764 9.25619 60.7419 10.4755 60.7419 12.8197L60.7419 13.654L55.3238 13.654C48.1308 13.654 44.3281 15.4903 44.3281 19.2165C44.3281 22.8837 47.8417 24.8789 52.5898 24.8789C59.0608 24.8789 61.1453 21.7587 61.1453 21.7587C61.1453 22.9998 61.2549 24.2227 61.2549 24.2227L65.3633 24.2227C65.3633 24.2227 65.2039 22.7069 65.2039 21.737L65.2039 13.3542C65.2039 7.85767 60.1234 6.70093 55.6425 6.70093ZM60.7419 16.1571L60.7419 17.2696C60.7419 18.7206 59.7159 22.328 53.6754 22.328C50.3677 22.328 48.9495 20.8875 48.9495 19.2165C48.9495 16.1767 53.7254 16.1571 60.7419 16.1571Z" fill="#F5AF02"/>
<path id="y" d="M62.7148 7.39673L67.9139 7.39673L75.3752 20.4412L82.8195 7.39673L87.5291 7.39673L73.9695 30.6201L69.0294 30.6201L72.9422 24.1463L62.7148 7.39673Z" fill="#86B817"/>
</g>
<defs>
<clipPath id="clip0_1003_2009">
<rect width="87.5579" height="30.6453" fill="white"/>
</clipPath>
</defs>
</svg>
