<svg width="66" height="74" viewBox="0 0 66 74" fill="none" xmlns="http://www.w3.org/2000/svg">
<path d="M57.1 13.4251C56.8375 13.4251 51.325 12.8988 51.325 12.8988C51.325 12.8988 47.3875 8.95181 46.8625 8.68867C46.6 8.42554 46.6 8.42554 46.3375 8.42554L43.1875 73.1568L65.7625 68.1572C65.7625 68.1572 57.8875 14.4776 57.8875 13.9514C57.8875 13.6882 57.3625 13.4251 57.1 13.4251Z" fill="#5A863E"/>
<path fill-rule="evenodd" clip-rule="evenodd" d="M44.8876 8.4246L41.7376 73.1559L-6.36389e-07 65.2618C-6.36389e-07 65.2618 5.25001 23.6865 5.51251 22.3708L5.52654 22.2722C5.7757 20.5192 5.81309 20.2562 7.87501 19.7395C8.47841 19.5378 9.06469 19.3362 9.63822 19.139C11.3102 18.564 12.8739 18.0262 14.4375 17.6344C16.0125 11.5823 20.475 -0.258822 29.925 0.0043138C31.2375 0.00431381 32.8125 0.530584 33.8626 2.1094L34.1251 2.1094C38.0626 2.1094 40.4251 5.53015 41.7376 9.21405C43.0501 8.68778 43.8376 8.42464 43.8376 8.42464C43.8901 8.42464 43.9636 8.41412 44.0518 8.40148C44.2948 8.36668 44.6495 8.31588 44.984 8.42533C44.9561 8.4246 44.9244 8.4246 44.8876 8.4246ZM29.6625 2.37253C30.0469 2.37253 30.2905 2.51354 30.5995 2.69234C30.7125 2.75779 30.8344 2.82829 30.975 2.8988C27.825 4.21448 24.675 7.63524 23.1 15.003L17.325 16.5818C19.1625 11.3191 22.8375 2.37253 29.6625 2.37253ZM32.55 5.00388C33.0751 6.58269 33.6001 8.42464 33.6001 11.3191L33.6001 11.8454L25.9875 13.9505C27.5625 8.42464 30.1875 6.05642 32.55 5.00388ZM39.3751 9.74032L35.9626 10.7929L35.9626 10.0035C35.9626 7.63524 35.7001 5.79329 35.1751 4.21448C37.0126 4.74075 38.5876 7.10896 39.3751 9.74032ZM31.2374 34.475L34.1249 26.0546C34.1249 26.0546 32.2874 24.739 27.8249 25.0021C18.1124 25.0021 13.1249 31.5805 13.1249 38.422C13.1249 42.9973 15.6849 45.0891 17.9332 46.9262C19.6933 48.3644 21.2624 49.6465 21.2624 51.8419C21.2624 53.1576 20.4749 54.7364 18.3749 54.7364C15.2249 54.7364 11.5499 51.5788 11.5499 51.5788L9.71238 57.894C9.71238 57.894 13.3874 62.3673 20.4749 62.3673C26.5124 62.3673 30.9749 57.894 30.9749 50.7893C30.9749 45.3397 27.2738 42.6238 24.3805 40.5007C22.5239 39.1383 20.9999 38.02 20.9999 36.58C20.9999 35.7906 21.2624 33.1593 25.7249 33.1593C28.8749 33.1593 31.2374 34.475 31.2374 34.475Z" fill="#8DB849"/>
</svg>
