<svg width="78" height="47" viewBox="0 0 78 47" fill="none" xmlns="http://www.w3.org/2000/svg">
<g id="Group 3229">
<path id="Vector" fill-rule="evenodd" clip-rule="evenodd" d="M7.2309 0H70.4264C71.3763 -8.48371e-08 72.3168 0.187133 73.1943 0.550709C74.0718 0.914286 74.869 1.44718 75.5405 2.11895C76.212 2.79072 76.7446 3.58821 77.1078 4.46585C77.471 5.3435 77.6577 6.2841 77.6573 7.23393V31.344C77.6573 32.2934 77.4703 33.2335 77.1069 34.1106C76.7434 34.9877 76.2108 35.7847 75.5393 36.4559C74.8678 37.1271 74.0706 37.6594 73.1933 38.0225C72.3161 38.3855 71.3759 38.5722 70.4264 38.5718H47.7619L50.8639 46.1969L37.1722 38.5718H7.22174C5.3061 38.5693 3.46971 37.8069 2.11572 36.4517C0.761732 35.0966 0.000808113 33.2596 0 31.344V7.23393C-1.71171e-07 5.3159 0.761728 3.47638 2.1177 2.11985C3.47367 0.763312 5.31287 0.00081032 7.2309 0Z" fill="#7D57A4"/>
<path id="Vector_2" d="M3.90013 6.449C4.13902 6.14816 4.44053 5.90383 4.78338 5.73322C5.12623 5.56262 5.50206 5.46992 5.88435 5.46165C7.49411 5.34887 8.41804 6.11373 8.65615 7.75623C9.64927 14.4185 10.7126 20.074 11.8462 24.7226L18.794 11.4103C19.4228 10.2087 20.2175 9.57304 21.1781 9.50332C22.5701 9.40489 23.4401 10.2979 23.7881 12.1824C24.442 15.9089 25.4468 19.5641 26.7889 23.0986C27.6233 14.9906 29.0163 9.12909 30.9679 5.51394C31.1562 5.10847 31.4508 4.76244 31.8198 4.51313C32.1888 4.26381 32.6183 4.12064 33.062 4.09904C33.7846 4.03921 34.5018 4.26539 35.0615 4.72959C35.3472 4.94695 35.582 5.22493 35.7492 5.54385C35.9164 5.86277 36.012 6.21483 36.0292 6.57511C36.0803 7.10687 35.9741 7.64198 35.724 8.11303C34.4866 10.4261 33.4691 14.2719 32.6713 19.6506C31.8837 24.8426 31.5927 28.9038 31.7983 31.834C31.8704 32.5522 31.7425 33.2765 31.4289 33.9256C31.2767 34.2532 31.0395 34.5333 30.7423 34.7363C30.4452 34.9394 30.0992 35.0578 29.7408 35.079C28.9043 35.1406 28.071 34.7438 27.2315 33.8948C24.2847 30.8497 21.9443 26.319 20.2104 20.3026C18.1753 24.4038 16.649 27.4714 15.6314 29.5056C13.7693 33.1146 12.1738 34.9652 10.8449 35.0575C9.98201 35.119 9.24734 34.389 8.64088 32.8675C7.01281 28.6905 5.26669 20.6092 3.40254 8.62362C3.32887 8.24628 3.33511 7.85752 3.42086 7.48277C3.5066 7.10802 3.66992 6.75575 3.90013 6.449Z" fill="white"/>
<path id="Vector_3" d="M72.0355 11.4681C71.5117 10.5156 70.7862 9.69109 69.9103 9.05315C69.0345 8.41521 68.03 7.97953 66.9681 7.77708C66.402 7.6565 65.8251 7.59466 65.2464 7.59253C62.21 7.59253 59.7293 9.1848 57.8041 12.3693C56.1646 15.0774 55.3112 18.1942 55.3406 21.3662C55.3406 23.8269 55.8494 25.9359 56.8669 27.6932C57.3901 28.6467 58.1159 29.472 58.9925 30.1101C59.869 30.7481 60.8746 31.1832 61.9373 31.3843C62.5021 31.5075 63.0782 31.5704 63.656 31.5719C66.7229 31.5719 69.2026 29.9796 71.0953 26.7951C72.7346 24.0676 73.5886 20.9344 73.5618 17.7459C73.5618 15.2852 73.053 13.1926 72.0355 11.4681ZM68.0365 20.3296C67.6031 22.4212 66.7992 23.9971 65.6249 25.0572C64.6949 25.9 63.8422 26.2435 63.0668 26.0876C62.2915 25.9318 61.6697 25.2428 61.2017 24.0207C60.843 23.0936 60.6537 22.1089 60.643 21.114C60.64 20.3267 60.7178 19.5413 60.875 18.7702C61.1772 17.4057 61.7459 16.1154 62.5479 14.9746C63.6021 13.4141 64.703 12.7589 65.8508 13.0091C66.6262 13.167 67.2469 13.8539 67.713 15.0699C68.0704 15.9961 68.2586 16.9798 68.2685 17.9735C68.2725 18.7649 68.1948 19.5545 68.0365 20.3296Z" fill="white"/>
<path id="Vector_4" d="M52.1722 11.4681C51.6485 10.5156 50.9229 9.69109 50.0471 9.05315C49.1713 8.41521 48.1667 7.97953 47.1048 7.77708C46.5387 7.6565 45.9618 7.59466 45.3832 7.59253C42.3447 7.59253 39.865 9.1848 37.9439 12.3693C36.3021 15.0766 35.4475 18.1937 35.4773 21.3662C35.4773 23.8269 35.9861 25.9359 37.0036 27.6932C37.526 28.6474 38.2516 29.4732 39.1283 30.1114C40.0049 30.7496 41.0109 31.1843 42.0741 31.3843C42.6388 31.5075 43.2149 31.5704 43.7927 31.5719C46.8617 31.5719 49.3424 29.9796 51.2351 26.7951C52.8801 24.0691 53.7414 20.9363 53.723 17.7459C53.723 15.2852 53.2142 13.1926 52.1967 11.4681H52.1722ZM48.1733 20.3296C47.7398 22.4253 46.9339 24.0032 45.7556 25.0634C44.8235 25.9062 43.9708 26.2496 43.1975 26.0938C42.4241 25.9379 41.8044 25.2469 41.3384 24.0207C40.9797 23.0936 40.7905 22.1089 40.7798 21.114C40.7768 20.3267 40.8545 19.5413 41.0118 18.7702C41.3166 17.4066 41.885 16.1168 42.6846 14.9746C43.7347 13.4182 44.8357 12.7651 45.9876 13.0153C46.7629 13.1732 47.3826 13.8601 47.8466 15.0761C48.205 16.0021 48.3942 16.9858 48.4053 17.9797C48.4084 18.7669 48.3307 19.5524 48.1733 20.3235V20.3296Z" fill="white"/>
</g>
</svg>
