<svg width="60" height="60" viewBox="0 0 60 60" fill="none" xmlns="http://www.w3.org/2000/svg">
<path d="M51.8188 49.392C26.6907 61.1778 11.0959 51.317 1.11323 45.3277C0.495503 44.9502 -0.554415 45.4159 0.356533 46.4471C3.68227 50.4213 14.5814 60.0002 28.8079 60.0002C43.0443 60.0002 51.5136 52.3446 52.5731 51.0092C53.6254 49.685 52.882 48.9545 51.8185 49.392H51.8188ZM58.8759 45.551C58.2011 44.685 54.7727 44.5236 52.6151 44.7848C50.4541 45.0385 47.2105 46.3401 47.4925 47.1216C47.6372 47.4143 47.9326 47.283 49.4171 47.1515C50.9057 47.0051 55.0757 46.4864 55.9446 47.6059C56.8176 48.7331 54.6146 54.1027 54.2123 54.9687C53.8236 55.8347 54.3608 56.0581 55.091 55.4813C55.8112 54.9047 57.1149 53.4116 57.9898 51.2986C58.8587 49.1741 59.3888 46.2104 58.8759 45.551Z" fill="#FF9900"/>
<path fill-rule="evenodd" clip-rule="evenodd" d="M34.9238 25.3427C34.9238 28.4351 35.0031 31.014 33.4171 33.7603C32.137 35.9933 30.1093 37.3664 27.8437 37.3664C24.751 37.3664 22.9499 35.0442 22.9499 31.6169C22.9499 24.8513 29.1009 23.6234 34.9238 23.6234V25.3427ZM43.0459 44.6902C42.5134 45.159 41.7431 45.1926 41.1428 44.8799C38.4695 42.6918 37.9936 41.6759 36.521 39.5881C32.1031 44.0315 28.9765 45.3599 23.2446 45.3599C16.4704 45.3599 11.1914 41.2403 11.1914 32.9901C11.1914 26.5485 14.7373 22.1608 19.778 20.0175C24.1507 18.1194 30.2566 17.7845 34.9238 17.26V16.2328C34.9238 14.3459 35.0709 12.1131 33.9496 10.4833C32.9639 9.02074 31.0835 8.41783 29.4295 8.41783C26.3597 8.41783 23.6183 9.96957 22.9499 13.1848C22.8138 13.8995 22.2816 14.6029 21.5566 14.6363L13.7401 13.8103C13.0833 13.6649 12.3583 13.1403 12.5396 12.1466C14.3407 2.81355 22.8931 0 30.5508 0C34.4704 0 39.5905 1.0272 42.6832 3.95229C46.6028 7.55819 46.2289 12.3699 46.2289 17.6059V29.9758C46.2289 33.6934 47.7922 35.3233 49.2647 37.333C49.7857 38.0474 49.8992 38.9073 49.242 39.4429C47.5995 40.7937 44.6768 43.3058 43.0684 44.7126L43.0457 44.6902" fill="black"/>
</svg>
