<svg width="60" height="60" viewBox="0 0 60 60" fill="none" xmlns="http://www.w3.org/2000/svg">
<g clip-path="url(#clip0_1047_2129)">
<circle cx="30" cy="30" r="30" fill="#33313F"/>
<path d="M28.9956 30.4695H33.3728C34.6176 30.4695 35.4052 29.7846 35.4052 28.684C35.4052 27.6462 34.6176 26.8985 33.3728 26.8985H28.9956C28.8506 26.8985 28.7266 27.0227 28.7266 27.1482V30.2198C28.7461 30.3649 28.8492 30.4695 28.9956 30.4695ZM28.9956 37.5472H33.5178C34.9076 37.5472 35.737 36.8414 35.737 35.5958C35.737 34.5161 34.9494 33.6443 33.5178 33.6443H28.9956C28.8506 33.6443 28.7266 33.7684 28.7266 33.894V37.278C28.7461 37.444 28.8492 37.5472 28.9956 37.5472Z" fill="white"/>
<path d="M45.0117 10.7912L32.0669 23.7025H34.183C37.4812 23.7025 39.4315 25.7781 39.4315 28.0406C39.4315 29.8261 38.2284 31.1331 36.9418 31.7148C36.734 31.7985 36.734 32.0886 36.9627 32.1709C38.4556 32.7526 39.5137 34.3093 39.5137 36.1352C39.5137 38.7088 37.7921 40.7635 34.4521 40.7635H25.2837C25.1387 40.7635 25.0146 40.6394 25.0146 40.5138V30.737L10.8041 44.8952C10.6173 45.0821 10.7414 45.4141 11.0118 45.4141H45.1775C45.3016 45.4141 45.4062 45.3109 45.4062 45.1854V10.9782C45.4675 10.7494 45.1776 10.6252 45.0117 10.7912Z" fill="white"/>
</g>
<defs>
<clipPath id="clip0_1047_2129">
<rect width="60" height="60" fill="white"/>
</clipPath>
</defs>
</svg>
