<svg width="99" height="35" viewBox="0 0 99 35" fill="none" xmlns="http://www.w3.org/2000/svg">
<rect width="99" height="35" fill="#1E1E1E"/>
<g id="logo">
<rect width="1600" height="762" transform="translate(-263 -358)" fill="white"/>
<g id="Frame 2146">
<g id="Frame 2136">
<g id="Rectangle 58">
<rect x="-63" y="-35" width="224" height="105" rx="10" fill="white"/>
<rect x="-62.5" y="-34.5" width="223" height="104" rx="9.5" stroke="#2962FF" stroke-opacity="0.1"/>
</g>
<g id="Group 279">
<g id="eBay" clip-path="url(#clip0_0_1)">
<path id="e" d="M12.8242 7.57617C5.84609 7.57617 0.03125 10.1596 0.03125 17.9537C0.03125 24.1283 3.94131 28.0167 13.0044 28.0167C23.672 28.0167 24.3558 21.8845 24.3558 21.8845L19.1869 21.8845C19.1869 21.8845 18.0786 25.1865 12.689 25.1865C8.29941 25.1865 5.14221 22.5988 5.14221 18.9718L24.8964 18.9718L24.8964 16.6958C24.8964 13.1075 22.2861 7.57617 12.8242 7.57617ZM12.644 10.485C16.8225 10.485 19.6711 12.7188 19.6711 16.0668L5.25653 16.0668C5.25653 12.5125 8.97471 10.485 12.644 10.485Z" fill="#E53238"/>
<path id="b" d="M24.893 0.0302734L24.893 24.1039C24.893 25.4704 24.7813 27.3891 24.7813 27.3891L29.7114 27.3891C29.7114 27.3891 29.8883 26.011 29.8883 24.7516C29.8883 24.7516 32.3241 28.077 38.9472 28.077C45.9216 28.077 50.659 23.8516 50.659 17.7978C50.659 12.166 46.3075 7.6365 38.9585 7.6365C32.0766 7.6365 29.9381 10.8795 29.9381 10.8795L29.9381 0.0302734L24.893 0.0302734ZM37.6859 10.6141C42.4221 10.6141 45.4338 13.6815 45.4338 17.7978C45.4338 22.2117 41.9554 25.0994 37.7197 25.0994C32.6648 25.0994 29.9381 21.6552 29.9381 17.8371C29.9381 14.2794 32.3849 10.6141 37.6859 10.6141Z" fill="#0064D2"/>
<path id="a" d="M62.914 7.57617C52.416 7.57617 51.7427 12.5923 51.7427 13.3939L56.968 13.3939C56.968 13.3939 57.242 10.4654 62.5537 10.4654C66.0052 10.4654 68.6798 11.844 68.6798 14.4945L68.6798 15.4379L62.5537 15.4379C54.4207 15.4379 50.1211 17.5141 50.1211 21.7273C50.1211 25.8737 54.0938 28.1297 59.4624 28.1297C66.779 28.1297 69.1359 24.6017 69.1359 24.6017C69.1359 26.005 69.2599 27.3877 69.2599 27.3877L73.9051 27.3877C73.9051 27.3877 73.7249 25.6737 73.7249 24.5772L73.7249 15.0989C73.7249 8.88408 67.9805 7.57617 62.914 7.57617ZM68.6798 18.2681L68.6798 19.526C68.6798 21.1666 67.5197 25.2454 60.6899 25.2454C56.9499 25.2454 55.3464 23.6166 55.3464 21.7273C55.3464 18.2903 60.7464 18.2681 68.6798 18.2681Z" fill="#F5AF02"/>
<path id="y" d="M70.9102 8.36337L76.7886 8.36337L85.225 23.1125L93.6421 8.36337L98.9671 8.36337L83.6355 34.6216L78.0499 34.6216L82.474 27.3017L70.9102 8.36337Z" fill="#86B817"/>
</g>
</g>
</g>
</g>
</g>
<defs>
<clipPath id="clip0_0_1">
<rect width="99" height="34.65" fill="white"/>
</clipPath>
</defs>
</svg>
