<svg width="69" height="59" viewBox="0 0 69 59" fill="none" xmlns="http://www.w3.org/2000/svg">
<path fill-rule="evenodd" clip-rule="evenodd" d="M59.3105 33.5907C61.506 26.7848 65.4578 11.8556 66.7751 6.36687C67.8728 1.75638 68.3119 0 66.1165 0C64.3601 0 59.53 1.97592 58.4323 5.70823C56.8955 11.8556 53.6023 24.8088 52.285 29.4193C50.7481 34.4689 47.6745 35.5667 43.5031 35.5667C40.4294 35.5667 38.673 35.3471 38.234 33.5907C38.0144 32.9321 37.5753 32.7125 37.1362 32.7125H32.0866C31.428 32.7125 30.9889 33.1516 30.9889 33.5907C30.5498 35.5667 28.7934 35.5667 25.7198 35.5667C23.0852 35.5667 19.1333 35.1276 17.8161 30.2975C16.7183 27.0043 14.3033 18.442 12.986 13.8315C11.6687 9.22099 7.71688 9.00144 5.74096 9.00144C3.54548 9.00144 3.32594 9.44053 4.64322 13.8315C5.9605 18.2224 9.03417 28.3216 11.0101 34.908C12.986 41.4944 19.3529 43.6899 23.5243 43.6899H30.5498C32.5257 43.6899 33.6235 43.2508 34.2821 42.8117C34.7212 42.3726 35.3798 42.3726 35.8189 42.8117C36.4776 43.2508 37.7949 43.9095 39.7708 43.9095H46.5767C51.8459 43.6899 57.115 40.1771 59.3105 33.5907Z" fill="black"/>
<path d="M23.9573 17.1245C25.7761 17.1245 27.2505 15.6501 27.2505 13.8313C27.2505 12.0125 25.7761 10.5381 23.9573 10.5381C22.1385 10.5381 20.6641 12.0125 20.6641 13.8313C20.6641 15.6501 22.1385 17.1245 23.9573 17.1245Z" fill="black"/>
<path d="M34.7151 17.1245C36.5339 17.1245 38.0083 15.6501 38.0083 13.8313C38.0083 12.0125 36.5339 10.5381 34.7151 10.5381C32.8963 10.5381 31.4219 12.0125 31.4219 13.8313C31.4219 15.6501 32.8963 17.1245 34.7151 17.1245Z" fill="black"/>
<path d="M45.6995 17.1245C47.5182 17.1245 48.9927 15.6501 48.9927 13.8313C48.9927 12.0125 47.5182 10.5381 45.6995 10.5381C43.8807 10.5381 42.4062 12.0125 42.4062 13.8313C42.4062 15.6501 43.8807 17.1245 45.6995 17.1245Z" fill="black"/>
<path d="M23.9573 28.9809C25.7761 28.9809 27.2505 27.5065 27.2505 25.6877C27.2505 23.869 25.7761 22.3945 23.9573 22.3945C22.1385 22.3945 20.6641 23.869 20.6641 25.6877C20.6641 27.5065 22.1385 28.9809 23.9573 28.9809Z" fill="black"/>
<path d="M34.7151 28.9809C36.5339 28.9809 38.0083 27.5065 38.0083 25.6877C38.0083 23.869 36.5339 22.3945 34.7151 22.3945C32.8963 22.3945 31.4219 23.869 31.4219 25.6877C31.4219 27.5065 32.8963 28.9809 34.7151 28.9809Z" fill="black"/>
<path d="M45.6995 28.9809C47.5182 28.9809 48.9927 27.5065 48.9927 25.6877C48.9927 23.869 47.5182 22.3945 45.6995 22.3945C43.8807 22.3945 42.4062 23.869 42.4062 25.6877C42.4062 27.5065 43.8807 28.9809 45.6995 28.9809Z" fill="black"/>
<path fill-rule="evenodd" clip-rule="evenodd" d="M7.05517 45.666C3.32286 45.666 0.46875 48.7397 0.46875 52.2524C0.46875 55.7652 3.54241 58.8389 7.05517 58.8389C10.5679 58.8389 13.6416 55.7652 13.6416 52.2524C13.6416 48.7397 10.5679 45.666 7.05517 45.666ZM7.05517 54.887C5.73788 54.887 4.64015 53.7893 4.64015 52.472C4.64015 51.1547 5.73788 50.057 7.05517 50.057C8.37245 50.057 9.47019 51.1547 9.47019 52.472C9.25064 53.7893 8.37245 54.887 7.05517 54.887ZM61.942 45.666C58.2097 45.666 55.3556 48.7397 55.3556 52.2524C55.3556 55.7652 58.4292 58.8389 61.942 58.8389C65.4547 58.8389 68.5284 55.7652 68.5284 52.2524C68.5284 48.7397 65.6743 45.666 61.942 45.666ZM61.942 54.887C60.6247 54.887 59.527 53.7893 59.527 52.472C59.527 51.1547 60.6247 50.057 61.942 50.057C63.2593 50.057 64.357 51.1547 64.357 52.472C64.357 53.7893 63.2593 54.887 61.942 54.887Z" fill="black"/>
</svg>
