<svg width="81" height="58" viewBox="0 0 81 58" fill="none" xmlns="http://www.w3.org/2000/svg">
<g clip-path="url(#clip0_1047_2158)">
<mask id="mask0_1047_2158" style="mask-type:luminance" maskUnits="userSpaceOnUse" x="0" y="0" width="81" height="58">
<path d="M0.179688 0.815247H80.6045V57.1852H0.179688V0.815247Z" fill="#00A1E0"/>
</mask>
<g mask="url(#mask0_1047_2158)">
<path fill-rule="evenodd" clip-rule="evenodd" d="M33.5726 6.98626C36.1687 4.27457 39.7819 2.59533 43.7735 2.59533C49.0958 2.59533 53.7084 5.56218 56.1921 9.98277C58.3968 8.99385 60.7847 8.48329 63.1997 8.48451C72.7797 8.48451 80.5561 16.3466 80.5561 26.0482C80.5561 35.7498 72.7797 43.6119 63.1997 43.6119C62.0288 43.6119 60.8875 43.4938 59.7698 43.2707C57.5965 47.1573 53.4422 49.7978 48.7114 49.7978C46.7853 49.8016 44.8838 49.3632 43.1526 48.5161C40.9498 53.7081 35.8198 57.3573 29.847 57.3573C23.6082 57.3573 18.3155 53.4114 16.2753 47.8634C15.3673 48.0557 14.4417 48.1523 13.5137 48.1518C6.09214 48.1518 0.0898438 42.0401 0.0898438 34.534C0.0898438 29.4903 2.79235 25.0994 6.80177 22.7259C5.95117 20.7598 5.51334 18.639 5.51556 16.4956C5.51556 7.8324 12.5232 0.830658 21.157 0.830658C26.2131 0.830658 30.737 3.24863 33.5755 7.00169" fill="#00A1E0"/>
</g>
<path fill-rule="evenodd" clip-rule="evenodd" d="M11.8113 30.1275C11.7607 30.2599 11.8293 30.2875 11.8456 30.3109C11.9966 30.4207 12.1501 30.5002 12.3039 30.5895C13.1258 31.0256 13.9005 31.1532 14.7107 31.1532C16.3606 31.1532 17.3866 30.272 17.3866 28.8539V28.826C17.3866 27.5146 16.2275 27.037 15.1453 26.6958L15.0037 26.6498C14.1847 26.3834 13.478 26.1514 13.478 25.6114V25.5838C13.478 25.121 13.892 24.7798 14.5306 24.7798C15.2403 24.7798 16.0859 25.0169 16.627 25.3168C16.627 25.3168 16.7872 25.4206 16.8455 25.2655C16.8771 25.1815 17.153 24.4407 17.1826 24.3576C17.2139 24.2707 17.1589 24.2051 17.1024 24.1713C16.4815 23.7916 15.624 23.5334 14.737 23.5334L14.5723 23.534C13.0614 23.534 12.0058 24.4508 12.0058 25.7621V25.7903C12.0058 27.1729 13.1708 27.6238 14.2589 27.9353L14.4339 27.9899C15.2264 28.2344 15.9123 28.4468 15.9123 29.0046V29.0325C15.9123 29.5457 15.4659 29.9285 14.7503 29.9285C14.4721 29.9285 13.5853 29.9237 12.6244 29.3143C12.5082 29.2464 12.4419 29.1974 12.3523 29.1426C12.305 29.1138 12.1868 29.0619 12.1353 29.2173L11.8101 30.1252M35.9671 30.1252C35.9165 30.2575 35.9851 30.2851 36.002 30.3085C36.1525 30.4183 36.3065 30.4978 36.4603 30.5871C37.2823 31.0232 38.0569 31.1508 38.8671 31.1508C40.517 31.1508 41.543 30.2697 41.543 28.8515V28.8236C41.543 27.5123 40.3869 27.0346 39.3018 26.6934L39.1601 26.6474C38.3411 26.381 37.6344 26.149 37.6344 25.609V25.5814C37.6344 25.1186 38.0484 24.7774 38.687 24.7774C39.3967 24.7774 40.2394 25.0145 40.7834 25.3144C40.7834 25.3144 40.9437 25.4183 41.0022 25.2631C41.0336 25.1791 41.3097 24.4383 41.3363 24.3553C41.368 24.2683 41.3127 24.2028 41.2565 24.1689C40.6356 23.7892 39.7781 23.5311 38.8911 23.5311L38.7261 23.5317C37.2151 23.5317 36.1596 24.4484 36.1596 25.7598V25.7879C36.1596 27.1705 37.3246 27.6215 38.4127 27.933L38.5874 27.9876C39.3828 28.232 40.0658 28.4445 40.0658 29.0022V29.0301C40.0658 29.5434 39.6193 29.9261 38.9038 29.9261C38.6249 29.9261 37.7358 29.9213 36.7778 29.312C36.6616 29.244 36.5936 29.1971 36.5055 29.1402C36.4757 29.1212 36.3364 29.0666 36.2888 29.2149L35.9635 30.1228M52.4625 27.3458C52.4625 28.1469 52.3134 28.7788 52.0219 29.2268C51.7309 29.6689 51.2916 29.8854 50.6795 29.8854C50.0675 29.8854 49.6298 29.6706 49.343 29.2298C49.0542 28.7847 48.9084 28.1498 48.9084 27.3488C48.9084 26.5477 49.055 25.9188 49.343 25.4767C49.6292 25.0376 50.0645 24.827 50.6795 24.827C51.2945 24.827 51.7321 25.0397 52.0219 25.4767C52.3152 25.9188 52.4625 26.5477 52.4625 27.3488M53.8403 25.8624C53.7046 25.4026 53.4944 24.9991 53.2135 24.6608C52.9323 24.3226 52.5778 24.0497 52.1549 23.8539C51.7351 23.6566 51.2383 23.5572 50.6765 23.5572C50.1148 23.5572 49.621 23.6572 49.1981 23.8539C48.7783 24.0509 48.4205 24.3226 48.1396 24.6608C47.8593 24.9991 47.6488 25.4026 47.5128 25.8624C47.3782 26.3193 47.3099 26.8177 47.3099 27.3488C47.3099 27.8799 47.3782 28.3783 47.5128 28.8352C47.6479 29.295 47.8587 29.6985 48.1396 30.0368C48.4208 30.375 48.7783 30.645 49.1981 30.8378C49.621 31.0301 50.1177 31.128 50.6765 31.128C51.2354 31.128 51.7321 31.0301 52.152 30.8378C52.5719 30.6456 52.9296 30.375 53.2105 30.0368C53.4911 29.6985 53.7014 29.295 53.8374 28.8352C53.9716 28.3783 54.0399 27.8799 54.0399 27.3488C54.0399 26.8207 53.9716 26.3193 53.8374 25.8624M65.1619 29.66C65.1166 29.5256 64.986 29.5763 64.986 29.5763C64.7858 29.6531 64.572 29.7243 64.3443 29.7599C64.1149 29.7961 63.8594 29.8142 63.5904 29.8142C62.9251 29.8142 62.3928 29.6152 62.0144 29.2209C61.633 28.8263 61.4201 28.1914 61.423 27.331C61.4251 26.5478 61.6137 25.9603 61.9523 25.5094C62.2864 25.0643 62.8009 24.8329 63.4809 24.8329C64.0487 24.8329 64.4833 24.8991 64.9386 25.0421C64.9386 25.0421 65.0466 25.0893 65.0983 24.9465C65.2192 24.6113 65.3085 24.371 65.4383 24.0031C65.475 23.8978 65.3851 23.8533 65.3523 23.8405C65.1737 23.7705 64.7521 23.6557 64.4327 23.6073C64.1341 23.5616 63.7882 23.5379 63.3979 23.5379C62.8183 23.5379 62.3038 23.6373 61.8633 23.8343C61.4227 24.031 61.0502 24.303 60.7545 24.6413C60.4588 24.9795 60.2341 25.383 60.0833 25.8428C59.934 26.2997 59.8586 26.8011 59.8586 27.3322C59.8586 28.4774 60.1661 29.406 60.7752 30.0854C61.3843 30.7678 62.3009 31.1119 63.4954 31.1119C64.2021 31.1119 64.9265 30.9686 65.4469 30.7619C65.4469 30.7619 65.5463 30.7138 65.5031 30.5975L65.1631 29.66M67.5729 26.5745C67.6388 26.1294 67.7603 25.7586 67.9513 25.4708C68.2373 25.0317 68.6728 24.7914 69.2848 24.7914C69.8969 24.7914 70.302 25.0329 70.5917 25.4708C70.7839 25.7601 70.8679 26.1443 70.8993 26.5745L67.5581 26.5739L67.5729 26.5745ZM72.215 25.5954C72.0976 25.1533 71.807 24.7053 71.6178 24.5006C71.3162 24.1772 71.0234 23.9488 70.7307 23.8242C70.3081 23.6439 69.8535 23.5513 69.3942 23.5521C68.8118 23.5521 68.2825 23.6509 67.8538 23.8518C67.425 24.0541 67.0643 24.3294 66.7804 24.6736C66.4969 25.0178 66.2837 25.4242 66.1477 25.89C66.0117 26.3499 65.9431 26.8542 65.9431 27.3823C65.9431 27.9223 66.0143 28.4237 66.1545 28.8776C66.2961 29.3345 66.5241 29.735 66.8316 30.0673C67.1391 30.4026 67.5324 30.6636 68.0054 30.8476C68.4756 31.0301 69.0462 31.1247 69.6997 31.1226C71.048 31.1182 71.7576 30.817 72.0474 30.6539C72.0991 30.6248 72.1479 30.5746 72.087 30.4302L71.7824 29.5727C71.7357 29.4449 71.6068 29.4912 71.6068 29.4912C71.2727 29.6164 70.7996 29.8412 69.6908 29.8383C68.9664 29.8371 68.4312 29.6226 68.0941 29.2864C67.7512 28.9423 67.5797 28.4409 67.5531 27.7288L72.2248 27.7324C72.2248 27.7324 72.3478 27.7312 72.3605 27.6108C72.3655 27.5609 72.5205 26.6495 72.2212 25.5963L72.215 25.5954ZM30.2285 26.5745C30.2945 26.1294 30.4163 25.7586 30.607 25.4708C30.8932 25.0317 31.3285 24.7914 31.9405 24.7914C32.5526 24.7914 32.9577 25.0329 33.2474 25.4708C33.4393 25.7601 33.5233 26.1443 33.5549 26.5745L30.2138 26.5739L30.2285 26.5745ZM34.8707 25.5954C34.7536 25.1533 34.4627 24.7053 34.2734 24.5006C33.9718 24.1772 33.6791 23.9488 33.3864 23.8242C32.9638 23.6439 32.5092 23.5513 32.0499 23.5521C31.4674 23.5521 30.9382 23.6509 30.5094 23.8518C30.0807 24.0541 29.72 24.3294 29.4361 24.6736C29.1532 25.0178 28.9394 25.4242 28.8034 25.89C28.6676 26.3499 28.5993 26.8542 28.5993 27.3823C28.5993 27.9223 28.67 28.4237 28.8111 28.8776C28.9524 29.3345 29.1807 29.735 29.4852 30.0673C29.7927 30.4026 30.186 30.6636 30.659 30.8476C31.1292 31.0301 31.6969 31.1247 32.3533 31.1226C33.7016 31.1182 34.4112 30.817 34.701 30.6539C34.7524 30.6248 34.8015 30.5746 34.7403 30.4302L34.4358 29.5727C34.3887 29.4449 34.2598 29.4912 34.2598 29.4912C33.9257 29.6164 33.4526 29.8412 32.3438 29.8383C31.6224 29.8371 31.0842 29.6226 30.7472 29.2864C30.4042 28.9423 30.2327 28.4409 30.2061 27.7288L34.8778 27.7324C34.8778 27.7324 35.0008 27.7312 35.0135 27.6108C35.0185 27.5609 35.1735 26.6495 34.874 25.5963L34.8707 25.5954ZM20.1459 29.6303C19.9628 29.4837 19.9374 29.4478 19.8768 29.3526C19.7843 29.2093 19.7369 29.0055 19.7369 28.7444C19.7369 28.335 19.873 28.0383 20.1539 27.8395C20.1509 27.8401 20.556 27.4894 21.5081 27.5013C21.9318 27.5089 22.3546 27.5451 22.7736 27.6096V29.7368H22.7742C22.7742 29.7368 22.1828 29.8647 21.5146 29.905C20.5654 29.9623 20.1456 29.6309 20.1485 29.6318L20.1459 29.6303ZM22.0027 26.3371C21.8135 26.3232 21.5681 26.3163 21.2754 26.3163C20.8762 26.3163 20.4889 26.3662 20.1281 26.4641C19.7644 26.5626 19.4362 26.7151 19.1553 26.918C18.8737 27.1196 18.642 27.3836 18.4782 27.6894C18.313 27.9979 18.2287 28.3599 18.2287 28.7693C18.2287 29.1847 18.3005 29.5437 18.4425 29.8374C18.5815 30.1287 18.7909 30.3806 19.0516 30.5702C19.3109 30.7595 19.6311 30.8995 20.0007 30.9826C20.3673 31.0665 20.7813 31.109 21.2366 31.109C21.7156 31.109 22.1917 31.0686 22.6529 30.9906C23.0458 30.9226 23.4372 30.8462 23.8268 30.7616C23.9823 30.7257 24.155 30.6785 24.155 30.6785C24.2703 30.6491 24.2614 30.5254 24.2614 30.5254L24.2588 26.2531C24.2588 25.3156 24.0092 24.6184 23.5166 24.1882C23.0258 23.758 22.3073 23.5414 21.3759 23.5414C21.027 23.5414 20.4622 23.5889 20.1252 23.6569C20.1252 23.6569 19.108 23.855 18.6882 24.185C18.6882 24.185 18.5959 24.2419 18.6462 24.371L18.9773 25.261C19.0184 25.3764 19.1305 25.337 19.1305 25.337C19.1305 25.337 19.1657 25.323 19.2071 25.2984C20.103 24.8089 21.2384 24.8237 21.2384 24.8237C21.7411 24.8237 22.1314 24.9261 22.3916 25.1263C22.6461 25.3224 22.7759 25.6188 22.7759 26.2419V26.4398C22.3768 26.3816 22.0072 26.3481 22.0072 26.3481L22.0027 26.3371ZM59.554 23.9251C59.5608 23.9094 59.5643 23.8926 59.5644 23.8755C59.5645 23.8585 59.5611 23.8416 59.5546 23.8259C59.5481 23.8102 59.5384 23.7959 59.5263 23.784C59.5142 23.7721 59.4998 23.7628 59.484 23.7565C59.4044 23.7263 59.0079 23.6423 58.7034 23.6233C58.1179 23.5865 57.7927 23.6856 57.4999 23.8174C57.2108 23.9482 56.8908 24.1586 56.7134 24.4018L56.7128 23.8322C56.7128 23.7539 56.6576 23.6907 56.5789 23.6907H55.3844C55.3069 23.6907 55.2507 23.7539 55.2507 23.8322V30.8043C55.2508 30.8419 55.2657 30.878 55.2923 30.9047C55.3188 30.9313 55.3548 30.9463 55.3923 30.9464H56.6165C56.654 30.9463 56.6899 30.9313 56.7164 30.9047C56.7429 30.878 56.7578 30.8419 56.7578 30.8043V27.3034C56.7578 26.8346 56.8092 26.3688 56.9118 26.0751C57.013 25.7847 57.1505 25.553 57.3199 25.3868C57.4815 25.2264 57.6793 25.1073 57.8965 25.0397C58.1003 24.981 58.3113 24.9513 58.5233 24.9513C58.7672 24.9513 59.0348 25.0142 59.0348 25.0142C59.1247 25.0243 59.1747 24.9691 59.2051 24.8878C59.2853 24.6739 59.5126 24.0334 59.557 23.9058" fill="#FFFFFE"/>
<path fill-rule="evenodd" clip-rule="evenodd" d="M48.1234 20.708C47.9721 20.6621 47.8181 20.6255 47.6624 20.5982C47.453 20.5631 47.2408 20.5467 47.0285 20.549C46.1849 20.549 45.5199 20.7881 45.053 21.2604C44.5894 21.7292 44.2739 22.4433 44.1157 23.3829L44.0587 23.7001H42.9998C42.9998 23.7001 42.8706 23.6947 42.8434 23.8362L42.6696 24.8094C42.6575 24.9025 42.6974 24.9607 42.8216 24.9601H43.8523L42.8065 30.8175C42.7246 31.2892 42.6308 31.6773 42.5271 31.9713C42.4248 32.2615 42.3248 32.4789 42.2018 32.6368C42.0826 32.7896 41.9697 32.902 41.7748 32.9676C41.614 33.0219 41.4289 33.0468 41.2261 33.0468C41.1131 33.0468 40.9629 33.0278 40.852 33.0056C40.7412 32.9836 40.6835 32.9587 40.6004 32.9237C40.6004 32.9237 40.4795 32.8774 40.4319 32.999C40.3931 33.0984 40.1185 33.8565 40.0859 33.9502C40.0528 34.0428 40.0992 34.1158 40.1578 34.1368C40.295 34.1861 40.397 34.2175 40.5839 34.2617C40.8435 34.3231 41.0623 34.327 41.2672 34.327C41.6965 34.327 42.0877 34.2665 42.412 34.149C42.7385 34.0306 43.0226 33.8244 43.2739 33.5452C43.5457 33.2441 43.7166 32.9287 43.8801 32.4985C44.0418 32.0722 44.1796 31.5429 44.2899 30.9261L45.3407 24.9601H46.8771C46.8771 24.9601 47.0066 24.9648 47.0335 24.8239L47.2074 23.8508C47.2195 23.7576 47.1799 23.6995 47.0551 23.7001H45.564C45.5714 23.6662 45.6391 23.1399 45.8103 22.6445C45.8833 22.4329 46.0208 22.2623 46.1373 22.1451C46.2461 22.0335 46.3801 21.9499 46.5279 21.9013C46.69 21.851 46.8589 21.8266 47.0285 21.8289C47.1689 21.8289 47.3067 21.8458 47.4117 21.8677C47.5563 21.8986 47.6124 21.9149 47.6503 21.9262C47.8023 21.9728 47.8227 21.9277 47.8525 21.8538L48.2091 20.8712C48.2458 20.7656 48.1565 20.7211 48.1234 20.708ZM27.2857 30.83C27.2857 30.9083 27.2301 30.9721 27.152 30.9721H25.9152C25.8368 30.9721 25.7812 30.9083 25.7812 30.83V20.8412C25.7812 20.7632 25.8368 20.7 25.9152 20.7H27.152C27.2301 20.7 27.2857 20.7632 27.2857 20.8412V30.83Z" fill="#FFFFFE"/>
</g>
<defs>
<clipPath id="clip0_1047_2158">
<rect width="80.7205" height="56.6667" fill="white" transform="translate(0.160156 0.666992)"/>
</clipPath>
</defs>
</svg>
