<svg width="224" height="105" viewBox="0 0 224 105" fill="none" xmlns="http://www.w3.org/2000/svg">
<path d="M131.832 33.0097C131.617 33.0097 127.096 32.578 127.096 32.578C127.096 32.578 123.867 29.3408 123.436 29.125C123.221 28.9092 123.221 28.9092 123.005 28.9092L120.422 81.9996L138.937 77.8991C138.937 77.8991 132.478 33.8729 132.478 33.4413C132.478 33.2255 132.048 33.0097 131.832 33.0097Z" fill="#5A863E"/>
<path fill-rule="evenodd" clip-rule="evenodd" d="M121.815 28.9096L119.232 82L85 75.5256C85 75.5256 89.3059 41.4269 89.5212 40.3478L89.5327 40.2669C89.737 38.8292 89.7677 38.6134 91.4588 38.1896C91.9537 38.0243 92.4346 37.8589 92.9049 37.6971C94.2762 37.2256 95.5588 36.7845 96.8412 36.4631C98.1329 31.4994 101.793 21.7877 109.544 22.0035C110.62 22.0035 111.912 22.4352 112.773 23.7301L112.988 23.7301C116.218 23.7301 118.155 26.5356 119.232 29.5571C120.308 29.1254 120.954 28.9096 120.954 28.9096C120.997 28.9096 121.057 28.901 121.13 28.8906C121.329 28.8621 121.62 28.8204 121.894 28.9102C121.871 28.9096 121.846 28.9096 121.815 28.9096ZM109.328 23.9459C109.643 23.9459 109.843 24.0615 110.097 24.2082C110.189 24.2618 110.289 24.3197 110.405 24.3775C107.821 25.4566 105.238 28.2622 103.946 34.305L99.2094 35.5999C100.716 31.2836 103.731 23.9459 109.328 23.9459ZM111.696 26.104C112.127 27.3989 112.558 28.9096 112.558 31.2836L112.558 31.7152L106.314 33.4417C107.606 28.9096 109.759 26.9673 111.696 26.104ZM117.294 29.9887L114.495 30.8519L114.495 30.2045C114.495 28.2622 114.28 26.7515 113.849 25.4566C115.356 25.8882 116.648 27.8305 117.294 29.9887ZM110.62 50.2752L112.988 43.3691C112.988 43.3691 111.481 42.2901 107.821 42.5059C99.8552 42.5059 95.7646 47.9012 95.7646 53.5124C95.7646 57.2649 97.8643 58.9806 99.7082 60.4873C101.152 61.6669 102.439 62.7184 102.439 64.519C102.439 65.598 101.793 66.8929 100.07 66.8929C97.4869 66.8929 94.4728 64.3032 94.4728 64.3032L92.9658 69.4827C92.9658 69.4827 95.9799 73.1516 101.793 73.1516C106.745 73.1516 110.405 69.4827 110.405 63.6557C110.405 59.1861 107.369 56.9586 104.996 55.2173C103.473 54.0999 102.223 53.1827 102.223 52.0017C102.223 51.3543 102.439 49.1961 106.099 49.1961C108.682 49.1961 110.62 50.2752 110.62 50.2752Z" fill="#8DB849"/>
</svg>
