<svg width="54" height="60" viewBox="0 0 54 60" fill="none" xmlns="http://www.w3.org/2000/svg">
<path d="M39.3503 21.6592C43.2245 24.4271 47.9704 26.0557 53.0963 26.0557V16.197C52.1263 16.1973 51.1587 16.0961 50.2096 15.8952V23.6554C45.0841 23.6554 40.3387 22.0268 36.4636 19.259V39.3778C36.4636 49.4422 28.3006 57.6004 18.2317 57.6004C14.4747 57.6004 10.9828 56.4652 8.08203 54.5182C11.3928 57.9017 16.0098 60.0006 21.1178 60.0006C31.1874 60.0006 39.3508 51.8423 39.3508 41.7775V21.6592H39.3503ZM42.9115 11.713C40.9316 9.55107 39.6316 6.75719 39.3503 3.66843V2.40039H36.6147C37.3033 6.3262 39.652 9.68018 42.9115 11.713ZM14.4506 46.7951C13.3444 45.3454 12.7467 43.5721 12.7493 41.7487C12.7493 37.1456 16.483 33.4134 21.0894 33.4134C21.9479 33.4132 22.8012 33.5445 23.6193 33.804V23.725C22.6632 23.594 21.6983 23.5384 20.7338 23.5588V31.4038C19.9151 31.1444 19.0613 31.0126 18.2027 31.0134C13.5963 31.0134 9.8628 34.7452 9.8628 39.3489C9.8628 42.6041 11.729 45.4223 14.4506 46.7951Z" fill="#FF004F"/>
<path d="M36.4646 19.2579C40.3397 22.0256 45.0851 23.6542 50.2106 23.6542V15.894C47.3496 15.2849 44.8168 13.7905 42.9125 11.712C39.6528 9.679 37.3043 6.32502 36.6157 2.39941H29.4301V41.7761C29.4138 46.3666 25.6865 50.0837 21.09 50.0837C18.3814 50.0837 15.975 48.7932 14.451 46.7941C11.7296 45.4213 9.8634 42.6029 9.8634 39.3482C9.8634 34.7449 13.5969 31.0126 18.2032 31.0126C19.0858 31.0126 19.9365 31.15 20.7344 31.4031V23.558C10.8423 23.7623 2.88672 31.8408 2.88672 41.7763C2.88672 46.7361 4.86785 51.2323 8.08324 54.5175C10.984 56.4642 14.4759 57.5996 18.2329 57.5996C28.302 57.5996 36.4648 49.441 36.4648 39.3768V19.2579H36.4646Z" fill="black"/>
<path d="M50.2104 15.8945V13.7962C47.6305 13.8002 45.1012 13.078 42.9123 11.7124C44.85 13.8327 47.4015 15.2947 50.2104 15.8945ZM36.6156 2.39996C36.5499 2.02478 36.4994 1.64713 36.4644 1.26804V0H26.5429V39.3771C26.5271 43.967 22.8 47.684 18.2031 47.684C16.8535 47.684 15.5793 47.3638 14.4509 46.7949C15.9748 48.7937 18.3812 50.084 21.0898 50.084C25.6859 50.084 29.4138 46.3674 29.4299 41.7769V2.39996H36.6156ZM20.7346 23.5586V21.3248C19.9056 21.2115 19.0698 21.1547 18.2329 21.1551C8.16297 21.1549 0 29.3135 0 39.3771C0 45.6864 3.20819 51.2468 8.08328 54.5176C4.86788 51.2326 2.88675 46.7362 2.88675 41.7767C2.88675 31.8414 10.8422 23.7628 20.7346 23.5586Z" fill="#00F2EA"/>
</svg>
