<svg width="101" height="60" viewBox="0 0 101 60" fill="none" xmlns="http://www.w3.org/2000/svg">
<path fill-rule="evenodd" clip-rule="evenodd" d="M9.39131 0H91.468C92.7016 -1.10185e-07 93.9232 0.243046 95.0628 0.715255C96.2025 1.18746 97.238 1.87958 98.1101 2.75207C98.9822 3.62456 99.6739 4.66033 100.146 5.8002C100.617 6.94007 100.86 8.16172 100.859 9.39534V40.7092C100.859 41.9423 100.616 43.1633 100.144 44.3025C99.6724 45.4417 98.9805 46.4767 98.1084 47.3485C97.2363 48.2202 96.201 48.9116 95.0616 49.3831C93.9222 49.8547 92.7011 50.0971 91.468 50.0966H62.0319L66.0607 60L48.2783 50.0966H9.3794C6.89142 50.0934 4.50636 49.1031 2.74784 47.3431C0.989317 45.5831 0.00104956 43.1972 0 40.7092V9.39534C-2.22312e-07 6.90423 0.989312 4.51509 2.75041 2.75324C4.51151 0.991381 6.90021 0.00105243 9.39131 0Z" fill="#7D57A4"/>
<path d="M5.06402 8.37588C5.3743 7.98516 5.76589 7.66782 6.21117 7.44624C6.65645 7.22467 7.14457 7.10426 7.64107 7.09352C9.73179 6.94705 10.9318 7.94044 11.241 10.0737C12.5309 18.7266 13.9119 26.0719 15.3841 32.1095L24.4078 14.8196C25.2245 13.259 26.2566 12.4334 27.5042 12.3428C29.3121 12.215 30.442 13.3748 30.894 15.8223C31.7433 20.6623 33.0483 25.4097 34.7913 30.0002C35.875 19.4697 37.6842 11.8568 40.219 7.16144C40.4636 6.63482 40.8461 6.18541 41.3253 5.86159C41.8046 5.53778 42.3624 5.35184 42.9388 5.32379C43.8772 5.24607 44.8087 5.53983 45.5356 6.14274C45.9067 6.42504 46.2116 6.78607 46.4288 7.20028C46.646 7.61449 46.7701 8.07175 46.7924 8.53967C46.8588 9.23032 46.7209 9.92532 46.396 10.5371C44.789 13.5413 43.4674 18.5362 42.4313 25.5219C41.4084 32.2653 41.0304 37.5399 41.2974 41.3457C41.3911 42.2785 41.225 43.2192 40.8177 44.0622C40.62 44.4877 40.3119 44.8515 39.926 45.1152C39.5401 45.3789 39.0906 45.5326 38.6252 45.5603C37.5389 45.6402 36.4565 45.1248 35.3662 44.0222C31.5389 40.0673 28.4993 34.1828 26.2474 26.3688C23.6043 31.6954 21.6219 35.6796 20.3004 38.3215C17.8819 43.0089 15.8097 45.4125 14.0837 45.5323C12.963 45.6122 12.0088 44.6641 11.2212 42.6879C9.10669 37.2629 6.83888 26.767 4.41778 11.2003C4.32209 10.7102 4.33019 10.2053 4.44156 9.71853C4.55292 9.23182 4.76504 8.77429 5.06402 8.37588Z" fill="white"/>
<path d="M93.5589 14.8949C92.8786 13.6578 91.9363 12.5869 90.7988 11.7584C89.6613 10.9298 88.3566 10.364 86.9775 10.101C86.2422 9.94441 85.4929 9.86409 84.7414 9.86133C80.7978 9.86133 77.5759 11.9293 75.0755 16.0654C72.9462 19.5826 71.8378 23.6307 71.876 27.7504C71.876 30.9463 72.5367 33.6855 73.8583 35.9679C74.5379 37.2063 75.4805 38.2782 76.6189 39.1069C77.7573 39.9356 79.0634 40.5007 80.4437 40.7618C81.1771 40.9218 81.9253 41.0035 82.6758 41.0054C86.659 41.0054 89.8796 38.9374 92.3378 34.8014C94.4669 31.259 95.576 27.1897 95.5412 23.0484C95.5412 19.8525 94.8804 17.1347 93.5589 14.8949ZM88.3651 26.4041C87.8021 29.1207 86.7581 31.1674 85.233 32.5443C84.0251 33.6389 82.9176 34.085 81.9106 33.8826C80.9036 33.6802 80.0961 32.7853 79.4882 31.198C79.0224 29.994 78.7766 28.715 78.7626 27.4228C78.7588 26.4004 78.8597 25.3803 79.064 24.3787C79.4565 22.6066 80.195 20.9308 81.2366 19.449C82.6057 17.4223 84.0357 16.5714 85.5264 16.8963C86.5334 17.1014 87.3396 17.9936 87.9449 19.5729C88.4091 20.7758 88.6536 22.0534 88.6664 23.3441C88.6716 24.3719 88.5706 25.3974 88.3651 26.4041Z" fill="white"/>
<path d="M67.7581 14.8949C67.0779 13.6578 66.1355 12.5869 64.998 11.7584C63.8605 10.9298 62.5558 10.364 61.1767 10.101C60.4414 9.94441 59.6922 9.86409 58.9406 9.86133C54.9944 9.86133 51.7738 11.9293 49.2787 16.0654C47.1465 19.5815 46.0365 23.6301 46.0752 27.7504C46.0752 30.9463 46.736 33.6855 48.0575 35.9679C48.736 37.2072 49.6784 38.2797 50.8169 39.1086C51.9555 39.9374 53.2621 40.502 54.6429 40.7618C55.3764 40.9218 56.1246 41.0035 56.875 41.0054C60.8609 41.0054 64.0829 38.9374 66.541 34.8014C68.6775 31.2609 69.7961 27.192 69.7722 23.0484C69.7722 19.8525 69.1114 17.1347 67.7898 14.8949H67.7581ZM62.5644 26.4041C62.0014 29.126 60.9547 31.1754 59.4243 32.5523C58.2138 33.6469 57.1063 34.093 56.1019 33.8906C55.0975 33.6881 54.2927 32.7906 53.6874 31.198C53.2216 29.994 52.9758 28.715 52.9619 27.4228C52.958 26.4004 53.059 25.3803 53.2632 24.3787C53.6591 22.6077 54.3974 20.9326 55.4358 19.449C56.7997 17.4276 58.2296 16.5794 59.7256 16.9043C60.7327 17.1094 61.5375 18.0016 62.1401 19.5809C62.6056 20.7836 62.8514 22.0612 62.8657 23.3521C62.8698 24.3745 62.7688 25.3946 62.5644 26.3962V26.4041Z" fill="white"/>
</svg>
