<svg width="265" height="240" viewBox="0 0 265 240" fill="none" xmlns="http://www.w3.org/2000/svg">
<g clip-path="url(#clip0_208_465)">
<path d="M345.265 65.6427C334.449 42.7376 323.808 21.357 290.149 17.5655C263.766 14.634 233.511 14.4483 209.323 27.0832C188.314 38.0667 180.287 63.0727 159.893 74.6816C143.927 83.7596 124.245 81.5218 105.986 79.6261C68.2896 75.7174 32.0364 90.0526 12.2468 124.058C-4.33388 152.553 -4.06078 190.116 12.9588 218.346C19.7081 229.555 28.7593 239.199 35.8792 250.173C42.9992 261.147 48.2269 274.251 45.9544 287.14C44.0037 297.938 37.1764 307.103 32.8849 317.188C21.415 344.109 30.3881 377.88 52.7525 396.701C68.4554 409.912 89.0642 415.844 109.41 418.404C141.596 422.45 174.377 418.863 205.968 411.564C224.928 407.206 244.133 401.47 263.513 403.541C279.947 405.31 295.201 412.58 310.729 418.277C329.006 424.971 348.464 429.593 367.844 427.795C391.721 425.586 413.685 412.678 423.321 389.968C434.479 363.663 426.247 333.614 418.376 306.126C410.028 276.811 405.248 249.108 417.538 220.262C427.935 195.832 446.193 165.149 424.209 141.491C410.086 126.296 389.272 121.498 373.735 108.433C359.671 96.629 352.424 80.7987 345.265 65.6427Z" fill="#D2DEFD"/>
<path d="M151.326 94.2235C151.326 94.2235 146.677 88.2365 144.41 88.2061C142.143 88.1756 140.005 92.9286 138.415 92.6772C136.825 92.4259 135.097 86.9721 131.012 88.2594C126.926 89.5467 125.914 95.8764 123.198 95.6479C120.482 95.4193 107.343 72.2104 107.343 72.2104L97.8783 77.7175C97.8783 77.7175 112.037 100.325 110.812 102.77C109.587 105.215 103.691 102.724 100.419 105.519C97.1479 108.315 100.876 112.687 100.252 114.165C99.6282 115.642 95.5426 114.865 94.3785 116.815C93.2145 118.765 94.7437 125.956 94.7437 125.956L121.266 105.634L151.326 94.2235Z" fill="white" stroke="#2962FF" stroke-miterlimit="10"/>
<path d="M89.1674 66.5508L86.6719 77.8315L89.6162 83.43L96.9809 79.5529C96.9809 79.5529 93.2073 74.9828 89.1674 66.5508Z" fill="#2962FF" stroke="#2962FF" stroke-miterlimit="10"/>
<path d="M101.926 59.8174L112.577 64.1438L115.522 69.7423L108.187 73.6269C108.187 73.6269 106.574 67.9295 101.926 59.8174Z" fill="#2962FF" stroke="#2962FF" stroke-miterlimit="10"/>
<path d="M86.8849 46.9067C86.8849 46.9067 80.8516 64.4258 96.9733 79.5226L108.872 73.2614C108.872 73.2614 105.951 53.0384 86.8849 46.9067Z" fill="white" stroke="#2962FF" stroke-miterlimit="10"/>
<path d="M92.9707 75.1201C94.2044 76.6876 95.5549 78.1594 97.0106 79.5227L108.872 73.2616C108.54 71.3148 108.031 69.4025 107.35 67.5488L92.9707 75.1201Z" fill="#2962FF" stroke="#2962FF" stroke-miterlimit="10"/>
<path d="M98.6261 61.4977C99.3502 59.0186 97.9298 56.4212 95.4535 55.6963C92.9773 54.9713 90.3829 56.3934 89.6588 58.8725C88.9347 61.3516 90.3551 63.949 92.8313 64.674C95.3076 65.3989 97.902 63.9769 98.6261 61.4977Z" fill="#2962FF" stroke="#2962FF" stroke-miterlimit="10"/>
<path d="M96.7753 58.7891C96.5042 58.2769 96.0876 57.8566 95.5782 57.5814C95.0687 57.3061 94.4891 57.1881 93.9127 57.2424C93.3363 57.2966 92.7889 57.5207 92.3396 57.8862C91.8903 58.2518 91.5593 58.7424 91.3884 59.2962C91.2175 59.85 91.2143 60.4421 91.3792 60.9976C91.5442 61.5532 91.8699 62.0474 92.3153 62.4178C92.7606 62.7881 93.3056 63.0181 93.8814 63.0786C94.4572 63.139 95.0379 63.0273 95.5503 62.7575C95.8915 62.5779 96.1938 62.3327 96.4401 62.0359C96.6864 61.7391 96.8717 61.3965 96.9855 61.0278C97.0993 60.6592 97.1393 60.2717 97.1032 59.8875C97.0672 59.5033 96.9557 59.1301 96.7753 58.7891Z" fill="white" stroke="#2962FF" stroke-miterlimit="10"/>
<path d="M25.4167 173.705L23.9255 178.892L27.3492 183.066L21.955 183.249L19.0487 187.796L17.2075 182.716L11.9883 181.36L16.2489 178.039L15.9293 172.646L20.3953 175.67L25.4167 173.705Z" fill="white" stroke="#2962FF" stroke-miterlimit="10"/>
<path d="M112.759 240.772L111.267 245.959L114.691 250.133L109.297 250.316L106.391 254.864L104.557 249.791L99.3379 248.427L103.591 245.106L103.271 239.713L107.737 242.737L112.759 240.772Z" fill="white" stroke="#2962FF" stroke-miterlimit="10"/>
<path d="M238.385 240.772L236.887 245.959L240.31 250.133L234.924 250.316L232.017 254.864L230.176 249.791L224.957 248.427L229.21 245.106L228.89 239.713L233.356 242.737L238.385 240.772Z" fill="white" stroke="#2962FF" stroke-miterlimit="10"/>
<path d="M51.7494 79.5211L50.7071 83.162L53.1037 86.0869L49.3224 86.2088L47.291 89.4003L45.9976 85.8432L42.3457 84.8834L45.3281 82.5602L45.0999 78.7822L48.2344 80.9074L51.7494 79.5211Z" fill="white" stroke="#2962FF" stroke-miterlimit="10"/>
<path d="M121.31 5.13384L118.038 7.03808L117.757 10.8161L114.942 8.29488L111.267 9.18606L112.788 5.72034L110.803 2.50598L114.569 2.88683L117.011 0L117.81 3.70185L121.31 5.13384Z" fill="white" stroke="#2962FF" stroke-miterlimit="10"/>
<path d="M202.686 21.1144L201.187 26.3016L204.611 30.4757L199.225 30.6585L196.318 35.2058L194.477 30.1329L189.258 28.7695L193.511 25.4485L193.191 20.0557L197.657 23.0796L202.686 21.1144Z" fill="white" stroke="#2962FF" stroke-miterlimit="10"/>
<path d="M173.968 289.804C229.929 289.804 275.294 244.387 275.294 188.362C275.294 132.336 229.929 86.9189 173.968 86.9189C118.008 86.9189 72.6426 132.336 72.6426 188.362C72.6426 244.387 118.008 289.804 173.968 289.804Z" fill="#2962FF" stroke="#2962FF" stroke-miterlimit="10"/>
<path d="M81.7045 162.083C75.2554 184.82 77.4045 209.139 87.7409 230.389C98.0772 251.64 115.875 268.329 137.731 277.267" stroke="#2962FF" stroke-miterlimit="10"/>
<path d="M94.5998 134.457C91.135 139.574 88.1669 145.012 85.7363 150.696" stroke="#2962FF" stroke-miterlimit="10"/>
<path d="M160.235 143.308L170.567 145.448L174.09 149.104L178.678 149.813L180.138 154.169L179.066 157.125L175.939 158.557L168.27 157.308L168.064 156.363L171.686 153.834L169.183 149.211L162.328 148.266L158.676 145.136L160.235 143.308Z" fill="white" stroke="#2962FF" stroke-miterlimit="10"/>
<path d="M243.485 238.74L235.291 237.354L225.401 236.097L218.127 237.712L211.006 237.819L203.854 241.132L199.685 242.313L197.098 242.884L192.792 246.799L188.516 249.724L181.288 247.134L181.479 240.195L177.119 239.433L172.425 240.477L171.261 238.55L170.789 234.216L168.628 232.228L165.441 233.431L165.022 235.991L161.089 237.11L156.63 233.667L153.967 228.336L156.029 220.97L162.937 219.926L165.182 221.16L168.004 220.528L171.048 217.634L174.304 217.893L180.147 224.238L181.737 223.644L180.071 218.312L178.04 215.798L177.515 211.228L185.366 205.538L184.606 196.58L187.649 192.688L189.505 186.595L191.75 185.597L196.368 180.874L196.185 178.94L192.48 180.014L191.362 178.284L188.775 178.863L184.971 180.691L186.173 177.218L193.933 173.044L195.341 170.515L199.776 174.956L202.363 176.601L205.406 174.925L203.322 172.183L197.608 169.761L190.601 164.665L183.845 161.977L178.002 162.289L174.555 160.095L170.591 159.989L170.333 161.032L171.375 167.948L172.836 170.096L172.387 178.086L166.863 175.367V171.917L161.416 170.668L158.73 168.55L158.601 162.411L164.315 155.967L163.554 150.216L161.02 151.031L158.913 149.279L157.391 145.912L155.694 146.042L155.596 150.01L153.077 151.061L150.08 143.094L147.942 142.332L144.343 141.654L141.003 144.366L146.686 147.786L148.512 151.595L138.622 147.131L131.348 142.089L129.492 135.835L122.972 135.31L118.955 139.407C117.969 140.351 116.932 141.241 115.85 142.073C114.778 142.835 110.426 144.267 110.426 144.267L110.373 148.472L105.047 149.904L106.089 152.387L115.09 151.869L120.644 155.807L122.47 164.033L121.503 171.894L123.695 179.511L119.67 192.46L122.066 209.925L126.373 219.332L131.09 226.188L134.719 225.875L132.71 222.371L130.207 219.972L127.887 215.059L129.895 214.122L135.054 221.854L139.071 228.854L140.425 234.947L146.085 239.357L155.36 243.531L168.294 244.11L172.859 246.799L176.51 249.93L181.304 251.575L186.781 251.842L191.894 250.455C191.894 250.455 192.183 252.855 192.442 254.035C192.701 255.216 190.304 259.938 190.304 259.938L188.782 265.209L191.826 269.962L197.463 270.93L206.334 276.833L209.933 277.511L210.694 281.037L211.455 282.561C229.078 275.567 244.379 263.746 255.605 248.452L255.354 246.723L259.158 233.774L255.635 232.334L243.485 238.74Z" fill="white" stroke="#2962FF" stroke-miterlimit="10"/>
<path d="M247.302 140.474L243.734 136.582L239.298 132.141L236.795 125.286L241.178 125.049L240.889 122.65L237.784 123.092L240.105 121.34L242.562 119.055L242.037 116.701L238.385 113.571L236.666 108.643C219.311 94.9663 197.971 87.3366 175.89 86.9132C153.808 86.4897 132.192 93.2956 114.327 106.296L120.596 108.932L118.245 113.891L113.992 115.825L114.935 122.277L113.208 123.397L111.436 126.504L112.607 130.686L116.708 130.267L115.947 134.624L119.941 133.74L124.818 123.534L124.689 119.619L131.156 117.691L132.175 114.5L138.825 112.283L138.642 108.132L143.519 106.799C143.519 106.799 146.623 104.133 147.323 103.981C148.746 103.972 150.168 104.069 151.576 104.27L155.723 106.304L160.683 105.253L164.335 101.734L169.836 100.972C170.724 101.315 171.682 101.44 172.628 101.338C173.8 101.071 176.957 98.6491 176.957 98.6491L184.702 101.361L187.989 102.884L188.75 106.411L192.379 106.098L193.079 103.722L196.449 104.484L196.632 106.411L190.005 109.823L195.141 114.104L204.636 116.93L209.201 120.845L214.465 120.167L215.12 117.554L216.892 116.671L209.748 113.327L205.891 113.693L208.729 112.07L205.024 108.703L208.965 107.576L214.755 109.252L217.182 114.629L220.438 117.113L224.067 123.458L230.062 126.07L231.789 133.824L237.967 136.155L238.287 138.768V141.982L240.637 145.897L241.573 147.908L245.72 147.725L246.709 143.315L247.302 140.474Z" fill="white" stroke="#2962FF" stroke-miterlimit="10"/>
<path d="M245.134 116.115L245.43 117.463L245.096 121.485L246.526 124.623L249.318 124.989L250.307 129.452L247.264 128.904L249.371 141.753L247.705 147.55L251.038 153.712L254.72 155.852L257.535 168.55L262.777 177.736L267.73 184.53L273.444 184.736L274.281 179.617L274.912 178.856C274.51 174.66 273.852 170.494 272.942 166.379C268.73 147.282 259.069 129.82 245.134 116.115Z" fill="white" stroke="#2962FF" stroke-miterlimit="10"/>
<path d="M190.547 126.702L173.542 123.328L166.786 125.08L166.132 129.909L162.64 127.479L157.74 129.803L158.988 137.663L163.888 139.781L165.949 134.639L170.256 137.381L178.944 142.104L181.858 148.609L189.687 155.007L199.182 151.168L198.162 147.702L195.165 144.176L192.608 134.875L194.069 130.359L190.547 126.702Z" fill="white" stroke="#2962FF" stroke-miterlimit="10"/>
<path d="M204.37 129.056L200.642 128.896L198.162 132.164L201.319 138.608L204.37 137.93V129.056Z" fill="white" stroke="#2962FF" stroke-miterlimit="10"/>
<path d="M227.194 128.668L218.277 126.208L216.003 123.755L214.283 124.882L216.969 129.216L219.738 135.013L223.573 135.637L224.067 134.541L221.169 131.486L227.795 132.476L227.194 128.668Z" fill="white" stroke="#2962FF" stroke-miterlimit="10"/>
<path d="M177.469 228.754L176.738 229.905L184.248 230.453L187.793 233.119L192.358 232.593L193.431 229.646L187.823 229.905L177.469 228.754Z" fill="white" stroke="#2962FF" stroke-miterlimit="10"/>
<path d="M199.349 228.572L194.73 231.078L195.856 232.807L201.958 231.443L202.719 229.303L200.657 230.011L199.349 228.572Z" fill="white" stroke="#2962FF" stroke-miterlimit="10"/>
<path d="M292.037 43.9424L248.268 32.3037L258.744 45.8314L292.037 43.9424Z" fill="white" stroke="#2962FF" stroke-linecap="round" stroke-linejoin="round"/>
<path d="M258.743 45.8314L258.416 54.9337L292.037 43.9424L258.743 45.8314Z" fill="white" stroke="#2962FF" stroke-linecap="round" stroke-linejoin="round"/>
<path d="M262.707 50.3787L258.416 54.9337L292.037 43.9424L262.707 50.3787Z" fill="white" stroke="#2962FF" stroke-linecap="round" stroke-linejoin="round"/>
<path d="M292.037 43.9424L262.707 50.3787L270.353 63.716L292.037 43.9424Z" fill="white" stroke="#2962FF" stroke-linecap="round" stroke-linejoin="round"/>
<path d="M251.538 52.8467L250.412 52.999" stroke="#2962FF" stroke-linecap="round" stroke-linejoin="round"/>
<path d="M248.16 53.3188C223.19 56.8836 67.1619 80.5343 34.5761 118.954C5.60423 153.116 53.7487 162.683 65.0088 164.412" stroke="#2962FF" stroke-linecap="round" stroke-linejoin="round" stroke-dasharray="2.99 2.99"/>
<path d="M66.0742 164.572C66.797 164.679 67.2002 164.717 67.2002 164.717" stroke="#2962FF" stroke-linecap="round" stroke-linejoin="round"/>
<path d="M62.2115 120.121C62.2114 118.796 61.9014 117.49 61.3065 116.307C60.7116 115.123 59.8483 114.096 58.7856 113.307C57.723 112.518 56.4905 111.989 55.187 111.762C53.8834 111.535 52.5449 111.617 51.2786 112.001C50.4257 109.581 48.8451 107.485 46.7541 106C44.6631 104.516 42.1642 103.716 39.6009 103.711C37.0377 103.706 34.5357 104.496 32.4389 105.972C30.3421 107.449 28.7534 109.539 27.8911 111.955C27.1488 111.743 26.3806 111.635 25.6086 111.635C23.5361 111.666 21.5467 112.457 20.0168 113.857C18.4869 115.257 17.5226 117.17 17.3061 119.234C17.0897 121.297 17.6361 123.369 18.8422 125.057C20.0482 126.745 21.8302 127.931 23.8511 128.393L55.7142 128.385C57.5677 127.94 59.2171 126.882 60.396 125.382C61.5749 123.883 62.2145 122.029 62.2115 120.121Z" fill="white" stroke="#2962FF" stroke-miterlimit="10"/>
<path d="M69.7961 124.333C69.7972 123.681 69.6454 123.038 69.353 122.455C69.0606 121.872 68.6357 121.367 68.1124 120.978C67.5892 120.59 66.9823 120.33 66.3405 120.22C65.6987 120.109 65.0399 120.151 64.4171 120.342C64.0048 119.142 63.2286 118.1 62.1968 117.363C61.165 116.626 59.9291 116.23 58.6615 116.23C57.394 116.23 56.158 116.626 55.1262 117.363C54.0944 118.1 53.3182 119.142 52.9059 120.342C52.367 120.189 51.8029 120.147 51.2474 120.218C50.6919 120.288 50.1562 120.47 49.6725 120.753C49.1887 121.035 48.7668 121.412 48.4318 121.862C48.0968 122.311 47.8556 122.823 47.7227 123.368C47.5898 123.912 47.5678 124.478 47.6581 125.032C47.7483 125.585 47.949 126.114 48.2482 126.588C48.5473 127.062 48.9388 127.471 49.3991 127.79C49.8595 128.109 50.3794 128.332 50.9278 128.446H66.6006C67.5203 128.225 68.3375 127.697 68.9182 126.95C69.4988 126.203 69.8084 125.28 69.7961 124.333Z" fill="white" stroke="#2962FF" stroke-miterlimit="10"/>
<path d="M293.925 168.549C293.924 167.225 293.614 165.919 293.02 164.735C292.425 163.552 291.561 162.525 290.499 161.736C289.436 160.946 288.204 160.417 286.9 160.191C285.596 159.964 284.258 160.046 282.992 160.43C282.135 158.015 280.553 155.925 278.464 154.445C276.375 152.965 273.88 152.168 271.32 152.162C268.761 152.156 266.263 152.942 264.167 154.413C262.071 155.883 260.48 157.966 259.612 160.376C258.87 160.164 258.101 160.056 257.329 160.057C255.257 160.088 253.267 160.878 251.738 162.278C250.208 163.678 249.243 165.591 249.027 167.655C248.81 169.719 249.357 171.79 250.563 173.478C251.769 175.166 253.551 176.353 255.572 176.814L287.435 176.753C289.277 176.309 290.917 175.259 292.093 173.772C293.27 172.285 293.914 170.446 293.925 168.549Z" fill="white" stroke="#2962FF" stroke-miterlimit="10"/>
<path d="M50.5397 243.348C50.5419 242.023 50.2339 240.716 49.6404 239.532C49.0469 238.347 48.1845 237.319 47.1222 236.529C46.0599 235.739 44.8274 235.209 43.5235 234.981C42.2197 234.754 40.8808 234.836 39.6143 235.221C38.7595 232.802 37.1778 230.706 35.0863 229.223C32.9948 227.74 30.496 226.941 27.9329 226.936C25.3697 226.931 22.8678 227.72 20.7705 229.195C18.6733 230.67 17.0834 232.759 16.2192 235.175C15.4762 234.966 14.7085 234.859 13.9367 234.855C11.8642 234.886 9.87485 235.676 8.34496 237.077C6.81507 238.477 5.8507 240.39 5.63425 242.453C5.4178 244.517 5.96427 246.589 7.17031 248.277C8.37636 249.964 10.1583 251.151 12.1793 251.612L44.0423 251.551C45.8876 251.112 47.5317 250.064 48.7102 248.576C49.8887 247.088 50.5331 245.247 50.5397 243.348Z" fill="white" stroke="#2962FF" stroke-miterlimit="10"/>
<path d="M58.1243 247.56C58.1243 246.453 57.6851 245.392 56.9032 244.609C56.1213 243.826 55.0608 243.386 53.9551 243.386C53.5455 243.386 53.1381 243.445 52.7454 243.561C52.3314 242.364 51.555 241.326 50.5241 240.591C49.4932 239.856 48.2591 239.461 46.9936 239.461C45.728 239.461 44.4939 239.856 43.4631 240.591C42.4322 241.326 41.6557 242.364 41.2418 243.561C40.7043 243.413 40.1424 243.374 39.5896 243.446C39.0367 243.519 38.5039 243.702 38.0229 243.984C37.5419 244.267 37.1224 244.643 36.7892 245.091C36.4559 245.538 36.2158 246.048 36.0829 246.591C35.9501 247.133 35.9272 247.696 36.0157 248.247C36.1042 248.799 36.3022 249.326 36.5981 249.8C36.894 250.273 37.2816 250.682 37.7382 251.002C38.1947 251.323 38.7109 251.549 39.2561 251.666H54.9365C55.8535 251.444 56.668 250.917 57.247 250.171C57.8261 249.425 58.1353 248.505 58.1243 247.56Z" fill="white" stroke="#2962FF" stroke-miterlimit="10"/>
</g>
<defs>
<clipPath id="clip0_208_465">
<rect width="265" height="240" rx="16" fill="white"/>
</clipPath>
</defs>
</svg>
