<svg width="1837" height="1170" viewBox="0 0 1837 1170" fill="none" xmlns="http://www.w3.org/2000/svg">
<circle cx="1001" cy="585" r="460.5" stroke="white"/>
<path d="M1795.2 477.881C1800.9 519.357 1781.55 562.299 1741.63 604.447C1701.71 646.594 1641.23 687.927 1564.73 726.177C1411.71 802.676 1194.61 866.828 949.685 900.494C704.76 934.16 478.399 930.964 310.42 898.586C226.43 882.397 157.045 858.914 107.233 829.102C57.4202 799.288 27.2042 763.159 21.5031 721.683C15.802 680.206 35.1494 637.264 75.0709 595.117C114.991 552.97 175.468 511.637 251.975 473.387C404.988 396.887 622.092 332.736 867.017 299.07C1111.94 265.404 1338.3 268.599 1506.28 300.977C1590.27 317.166 1659.66 340.649 1709.47 370.462C1759.28 400.275 1789.5 436.405 1795.2 477.881Z" stroke="white" stroke-width="0.3"/>
<circle cx="1001" cy="585" r="584.75" stroke="white" stroke-width="0.5"/>
</svg>
