<svg width="493" height="437" viewBox="0 0 493 437" fill="none" xmlns="http://www.w3.org/2000/svg">
<circle cx="261.5" cy="218.167" r="160" stroke="white"/>
<circle cx="261" cy="218.667" r="217.75" stroke="white" stroke-width="0.5"/>
<path opacity="0.2" d="M66.0971 150.162C36.3089 149.274 11.3452 172.196 10.821 201.479C9.8996 230.44 33.4696 254.705 63.5879 255.206L303.611 261.087C335.184 261.458 361.602 238.405 365.332 208.122C368.827 175.364 344.787 146.15 311.061 142.407C309.275 115.828 293.044 91.6169 268.796 79.5352C230.289 60.1783 182.933 75.1301 163.377 112.54C155.803 110.012 148 108.931 140.263 108.557C110.475 107.669 82.6926 124.07 69.7668 150.189L66.0971 150.162Z" fill="#AEC2F9"/>
<path d="M152.701 192.418C119.525 191.429 91.7216 216.958 91.1378 249.571C90.1116 281.827 116.363 308.852 149.907 309.411L417.232 315.96C452.396 316.373 481.819 290.698 485.973 256.97C489.866 220.486 463.092 187.949 425.53 183.781C423.54 154.178 405.463 127.213 378.457 113.757C335.57 92.1986 282.828 108.851 261.047 150.517C252.611 147.701 243.92 146.497 235.304 146.08C202.127 145.091 171.185 163.358 156.789 192.448L152.701 192.418Z" fill="white"/>
</svg>
