<svg width="545" height="436" viewBox="0 0 545 436" fill="none" xmlns="http://www.w3.org/2000/svg">
<circle cx="270.5" cy="217.5" r="160" stroke="white"/>
<circle cx="270" cy="218" r="217.75" stroke="white" stroke-width="0.5"/>
<path opacity="0.2" d="M161.87 132.102C124.523 130.959 93.2241 160.476 92.5669 198.183C91.4117 235.477 120.963 266.722 158.724 267.369L459.654 274.941C499.239 275.419 532.361 245.734 537.037 206.737C541.419 164.555 511.28 126.936 468.995 122.116C466.756 87.8902 446.406 56.7133 416.005 41.1555C367.726 16.2295 308.354 35.4832 283.835 83.6566C274.339 80.4013 264.556 79.0089 254.856 78.527C217.509 77.3834 182.676 98.5037 166.471 132.137L161.87 132.102Z" fill="#AEC2F9"/>
<path d="M69.3498 204.161C38.0957 203.204 11.9035 227.905 11.3535 259.461C10.3868 290.67 35.1167 316.818 66.7171 317.359L318.552 323.696C351.678 324.096 379.397 299.254 383.31 266.619C386.977 231.319 361.755 199.837 326.369 195.804C324.495 167.162 307.465 141.071 282.024 128.052C241.622 107.192 191.936 123.305 171.417 163.619C163.47 160.895 155.283 159.729 147.166 159.326C115.912 158.369 86.762 176.044 73.2001 204.19L69.3498 204.161Z" fill="white"/>
</svg>
