<svg width="607" height="314" viewBox="0 0 607 314" fill="none" xmlns="http://www.w3.org/2000/svg">
<path fill-rule="evenodd" clip-rule="evenodd" d="M545.603 84.1196L541.417 105.654L464.67 129.619L479.321 97.318C476.465 95.896 474.076 94.0082 471.581 92.0361C471.029 91.5998 470.471 91.1593 469.903 90.7188C469.611 89.5595 469.293 88.4808 468.986 87.4379C468.188 84.7314 467.461 82.2657 467.461 79.2571L431.878 79.6044L485.601 19.5173L507.229 24.7272C537.928 -2.36409 569.325 -2.71142 607.001 2.84577C596.186 38.6202 582.93 67.4481 545.603 84.1196ZM592 12.9182C547.347 6.66634 515.951 32.7157 511.067 39.6621L488.043 34.4523L460.484 64.6695H483.508C483.508 64.6695 476.531 71.2687 480.019 83.0777C489.438 91.0661 498.857 87.2456 498.857 87.2456L489.438 107.738L529.207 95.5814L533.742 73.3526C542.115 71.9633 579.79 54.9444 592 12.9182ZM543.514 27.5034C552.238 27.5034 558.868 34.4519 558.868 43.1374C558.868 51.823 551.889 58.424 543.514 58.424C534.79 58.424 527.811 51.823 527.811 43.1374C527.811 34.4519 535.139 27.5034 543.514 27.5034ZM543.514 30.2828C549.795 30.2828 555.378 35.1467 556.076 41.0529C554.331 36.5364 549.795 33.0622 544.212 33.0622C537.233 33.0622 531.65 38.6209 531.65 45.5694C531.65 45.9168 531.737 46.1774 531.824 46.4379C531.911 46.6985 531.999 46.9591 531.999 47.3065C531.301 45.9168 530.952 44.5271 530.952 42.79C530.952 35.8415 536.535 30.2828 543.514 30.2828ZM461.177 116.761C352.336 222.001 271.054 261.943 229.541 276.878C240.006 282.783 251.518 285.908 263.728 286.256C289.543 286.256 312.567 272.015 324.428 251.176C336.289 257.775 349.545 261.248 363.848 261.248C408.85 261.248 445.479 224.779 445.479 179.975C445.479 171.291 444.084 163.303 441.642 155.314C447.223 149.757 453.852 143.158 460.828 136.559C466.759 149.757 470.247 164.345 470.247 179.975C470.247 238.672 422.804 285.908 363.848 285.908C353.383 285.908 342.917 284.172 332.8 281.393C264.94 352.056 189.58 286.932 172.402 272.087C170.329 270.296 169.104 269.237 168.841 269.237C170.934 268.463 172.843 267.75 174.64 267.079L174.648 267.076C183.324 263.835 189.377 261.575 200.935 258.122C292.334 230.337 389.663 172.681 461.177 116.761ZM443.738 102.529C443.738 102.529 372.223 146.639 258.149 186.582C183.708 212.843 117.145 218.758 43.1544 225.332C29.0737 226.584 14.7241 227.859 0 229.302C130.47 299.809 361.409 174.425 443.738 102.529ZM264.776 20.2092C210.355 20.2092 162.563 54.5943 145.469 104.609C106.746 116.765 79.5361 152.54 79.1873 194.219C215.937 190.745 316.406 155.318 437.806 85.8535C437.806 85.8535 265.822 162.959 123.142 164.001L110.933 164.696C120.7 143.509 140.934 128.227 165.353 125.101C174.772 79.6017 215.588 45.2166 264.427 45.2166C303.498 45.2166 337.685 67.098 354.43 99.3992C356 99.3992 357.57 99.3123 359.14 99.2255C360.71 99.1387 362.279 99.0518 363.849 99.0518C366.989 99.0518 370.129 99.0518 373.268 99.3992L410.246 84.8115C397.339 78.5597 383.385 75.0865 368.384 74.3918C345.011 40.7014 306.638 20.2092 264.776 20.2092Z" fill="white" fill-opacity="0.1"/>
</svg>
