<svg width="51" height="39" viewBox="0 0 51 39" fill="none" xmlns="http://www.w3.org/2000/svg">
<path d="M0.256836 38.9996V27.4939C0.256836 24.2268 0.89604 20.8888 2.17445 17.4797C3.45286 14.0706 5.13965 10.8568 7.23482 7.83833C9.32999 4.81986 11.6027 2.29856 14.053 0.274414L24.0672 6.18706C22.0786 9.31206 20.445 12.5791 19.1666 15.9882C17.9237 19.3973 17.3023 23.197 17.3023 27.3873V38.9996H0.256836ZM27.1567 38.9996V27.4939C27.1567 24.2268 27.7959 20.8888 29.0743 17.4797C30.3527 14.0706 32.0395 10.8568 34.1347 7.83833C36.2298 4.81986 38.5026 2.29856 40.9529 0.274414L50.9671 6.18706C48.9784 9.31206 47.3449 12.5791 46.0665 15.9882C44.8236 19.3973 44.2021 23.197 44.2021 27.3873V38.9996H27.1567Z" fill="#2962FF"/>
</svg>
