<svg width="51" height="39" viewBox="0 0 51 39" fill="none" xmlns="http://www.w3.org/2000/svg">
<path d="M0.257812 38.9996V27.4939C0.257812 24.2268 0.897017 20.8888 2.17543 17.4797C3.45383 14.0706 5.14062 10.8568 7.2358 7.83833C9.33097 4.81986 11.6037 2.29856 14.054 0.274414L24.0682 6.18706C22.0795 9.31206 20.446 12.5791 19.1676 15.9882C17.9247 19.3973 17.3033 23.197 17.3033 27.3873V38.9996H0.257812ZM27.1577 38.9996V27.4939C27.1577 24.2268 27.7969 20.8888 29.0753 17.4797C30.3537 14.0706 32.0405 10.8568 34.1357 7.83833C36.2308 4.81986 38.5036 2.29856 40.9538 0.274414L50.968 6.18706C48.9794 9.31206 47.3459 12.5791 46.0675 15.9882C44.8246 19.3973 44.2031 23.197 44.2031 27.3873V38.9996H27.1577Z" fill="#9C65BF"/>
</svg>
