<svg width="518" height="415" viewBox="0 0 518 415" fill="none" xmlns="http://www.w3.org/2000/svg">
<g filter="url(#filter0_d_74_3302)">
<path d="M437.611 264.223L202.803 343.647C193.54 345.783 182.299 343.884 177.549 339.375L52.0695 220.16C47.3195 215.73 51.0403 210.351 60.2236 208.215L278.882 144.217C288.144 142.081 299.386 143.98 304.136 148.489L445.844 252.357C450.515 256.787 446.874 262.087 437.611 264.223Z" fill="white"/>
</g>
<g filter="url(#filter1_d_74_3302)">
<path d="M437.611 236.542L202.803 315.966C193.54 318.102 182.299 316.203 177.549 311.694L52.0695 192.479C47.3195 188.049 51.0403 182.67 60.2236 180.534L278.882 116.536C288.144 114.4 299.386 116.299 304.136 120.808L445.844 224.676C450.515 229.106 446.874 234.406 437.611 236.542Z" fill="white"/>
</g>
<g filter="url(#filter2_d_74_3302)">
<path d="M437.611 200.944L202.803 280.367C193.54 282.503 182.299 280.605 177.549 276.096L52.0695 156.881C47.3195 152.451 51.0403 147.071 60.2236 144.935L278.882 80.9374C288.144 78.8015 299.386 80.7001 304.136 85.2093L445.844 189.077C450.515 193.507 446.874 198.808 437.611 200.944Z" fill="white"/>
</g>
<g filter="url(#filter3_d_74_3302)">
<path d="M437.611 170.883L202.803 250.307C193.54 252.442 182.299 250.544 177.549 246.035L52.0695 126.82C47.3195 122.39 51.0403 117.01 60.2236 114.875L278.882 50.8765C288.144 48.7406 299.386 50.6392 304.136 55.1483L445.844 159.016C450.515 163.447 446.874 168.747 437.611 170.883Z" fill="white"/>
</g>
<g clip-path="url(#clip0_74_3302)">
<path d="M206.28 123.553C207.293 124.41 208.265 125.232 209.381 126.176C208.948 126.332 208.489 126.497 208.056 126.652C203.421 128.318 198.811 129.975 194.176 131.641C192.011 132.42 191.874 133.316 193.61 134.785C212.977 151.169 232.344 167.552 251.712 183.936C253.448 185.405 254.991 185.697 257.182 184.91C277.48 177.614 297.799 170.335 318.051 163.03C320.369 162.197 320.527 161.318 318.667 159.745C299.299 143.361 279.932 126.977 260.565 110.594C258.973 109.247 257.312 108.947 255.351 109.652C250.716 111.318 246.106 112.975 241.471 114.642C241.012 114.806 240.554 114.971 240.019 115.163C238.944 114.254 237.973 113.432 236.919 112.541C237.204 112.413 237.489 112.286 237.769 112.185C242.608 110.446 247.426 108.689 252.286 106.967C256.483 105.483 261.097 106.316 264.508 109.201C283.875 125.585 303.242 141.969 322.61 158.352C326.268 161.447 325.819 164.075 321.311 165.696C300.987 173.001 280.638 180.315 260.314 187.621C255.984 189.177 251.35 188.326 247.836 185.354C228.36 168.91 208.931 152.473 189.502 136.037C186.215 133.257 186.654 130.558 190.678 129.112C195.496 127.355 200.356 125.633 205.195 123.894C205.505 123.757 205.878 123.673 206.28 123.553Z" fill="#FE8338"/>
<path d="M254.89 140.115C253.565 140.591 252.414 141.029 251.222 141.433C248.074 142.515 244.91 141.435 244.268 139.049C243.443 135.957 242.639 132.883 241.835 129.808C241.23 127.485 243.929 126.514 247.52 127.74C252.389 129.403 257.212 131.058 262.051 132.757C265.569 133.984 266.105 136.033 263.238 137.138C262.113 137.568 260.905 137.927 259.821 138.392C259.51 138.528 259.265 138.965 259.437 139.203C262.909 143.461 262.207 147.226 259.703 150.817C258.515 152.514 257.795 154.268 258.323 156.097C260.641 156.584 262.884 156.824 264.861 157.484C270.341 159.326 272.717 163.33 270.243 166.088C267.734 168.908 261.273 169.337 256.207 167.047C251.208 164.783 249.512 160.709 252.783 158.287C253.665 157.621 253.796 157.026 253.484 156.117C252.603 153.469 253.547 151.136 255.179 148.955C256.901 146.667 257.26 144.146 255.969 141.396C255.843 141.167 255.718 140.938 255.541 140.727C255.437 140.516 255.2 140.377 254.89 140.115ZM264.277 165.093C266.437 164.342 266.839 162.503 265.124 161.052C263.434 159.591 260.229 158.999 258.095 159.741C255.935 160.493 255.537 162.305 257.248 163.783C258.892 165.235 262.117 165.845 264.277 165.093ZM249.01 138.242C252.321 137.051 255.454 135.925 258.714 134.754C254.743 133.39 251.019 132.113 247.028 130.732C247.729 133.32 248.362 135.759 249.01 138.242Z" fill="#FE8338"/>
<path d="M208.433 117.299C207.808 116.402 207.021 115.614 206.71 114.829C205.934 112.791 206.861 111.212 209.474 110.198C210.65 109.75 211.842 109.346 213.039 108.916C216.91 107.525 221.451 108.235 224.949 110.764C225.099 110.86 225.269 110.973 225.543 111.174C226.638 110.78 227.712 110.369 228.828 109.993C230.402 109.452 231.648 109.677 232.909 110.743C235.828 113.182 238.696 115.639 241.59 118.087C242.892 119.189 242.737 119.917 241.107 120.503C233.288 123.314 225.495 126.115 217.676 128.925C216.123 129.484 214.856 129.241 213.595 128.175C210.702 125.727 207.808 123.279 204.914 120.831C203.591 119.712 203.767 119.001 205.376 118.398C206.4 118.005 207.465 117.647 208.433 117.299ZM216.029 125.506C216.244 125.504 216.383 125.528 216.434 125.51C222.872 123.221 229.286 120.94 235.683 118.616C235.912 118.534 236.076 118.151 235.911 118.011C234.122 116.436 232.257 114.889 230.397 113.316C223.546 115.778 216.873 118.177 210.175 120.584C212.226 122.289 214.148 123.915 216.029 125.506ZM221.334 112.587C219.938 111.345 218.368 110.937 216.681 111.444C215.248 111.859 213.894 112.371 212.606 112.909C211.109 113.546 211.142 114.556 212.624 115.718C215.527 114.674 218.431 113.631 221.334 112.587Z" fill="#FE8338"/>
<path d="M282.689 152.486C280.624 152.182 278.227 151.873 275.823 151.466C273.906 151.134 272.867 150.286 273.097 149.406C273.327 148.526 274.47 148.265 276.459 148.596C278.842 148.985 281.251 149.365 283.798 149.77C284.05 148.633 284.352 147.354 284.634 146.057C284.877 144.973 286.021 144.437 287.498 144.703C289.041 144.996 289.818 145.837 289.658 146.991C289.474 148.278 289.356 149.591 289.194 151.02C291.173 151.405 293.485 151.794 295.773 152.318C296.665 152.52 297.709 152.942 298.149 153.407C298.527 153.819 298.46 154.591 298.003 154.879C297.516 155.204 296.376 155.315 295.511 155.227C293.108 154.945 290.734 154.502 288.141 154.089C287.885 155.377 287.621 156.842 287.219 158.282C286.901 159.518 284.788 159.879 283.293 158.921C282.628 158.512 282.312 157.754 282.29 157.214C282.293 155.743 282.522 154.34 282.689 152.486Z" fill="#FE8338"/>
<path d="M224.583 144.213C222.446 143.91 220.043 143.627 217.639 143.221C215.697 142.898 214.732 142.173 214.869 141.277C215.012 140.353 216.261 140.029 218.229 140.343C220.613 140.732 222.996 141.121 225.635 141.543C225.882 140.308 226.152 138.94 226.489 137.598C226.738 136.612 227.863 136.182 229.34 136.449C230.816 136.716 231.624 137.522 231.513 138.533C231.335 139.918 231.203 141.31 230.953 143.094C232.998 143.381 235.283 143.656 237.574 144.028C239.424 144.335 240.472 145.129 240.339 145.999C240.201 146.896 238.901 147.239 236.984 146.906C234.718 146.525 232.427 146.152 229.998 145.755C229.701 147.008 229.43 148.376 229.114 149.735C228.866 150.846 227.726 151.355 226.209 151.053C224.624 150.726 223.909 149.937 224.099 148.747C224.263 147.443 224.369 146.059 224.583 144.213Z" fill="#FE8338"/>
<path d="M264.277 165.094C262.142 165.836 258.913 165.253 257.248 163.783C255.584 162.314 255.935 160.493 258.095 159.741C260.23 158.999 263.434 159.591 265.124 161.052C266.794 162.495 266.416 164.325 264.277 165.094Z" fill="white"/>
<path d="M249.01 138.242C248.362 135.759 247.704 133.33 247.028 130.732C250.999 132.095 254.743 133.39 258.714 134.754C255.454 135.925 252.321 137.051 249.01 138.242Z" fill="white"/>
<path d="M216.029 125.506C214.148 123.915 212.226 122.289 210.221 120.593C216.893 118.194 223.566 115.796 230.443 113.324C232.303 114.898 234.168 116.445 235.957 118.019C236.101 118.142 235.958 118.542 235.728 118.624C229.31 120.931 222.897 123.212 216.479 125.519C216.382 125.529 216.244 125.504 216.029 125.506Z" fill="white"/>
<path d="M221.334 112.587C218.43 113.63 215.527 114.674 212.624 115.718C211.142 114.556 211.109 113.546 212.606 112.909C213.893 112.371 215.248 111.859 216.681 111.444C218.414 110.946 219.959 111.362 221.334 112.587Z" fill="white"/>
</g>
<defs>
<filter id="filter0_d_74_3302" x="0" y="93.3406" width="517.877" height="321.183" filterUnits="userSpaceOnUse" color-interpolation-filters="sRGB">
<feFlood flood-opacity="0" result="BackgroundImageFix"/>
<feColorMatrix in="SourceAlpha" type="matrix" values="0 0 0 0 0 0 0 0 0 0 0 0 0 0 0 0 0 0 127 0" result="hardAlpha"/>
<feMorphology radius="20" operator="dilate" in="SourceAlpha" result="effect1_dropShadow_74_3302"/>
<feOffset dx="10" dy="10"/>
<feGaussianBlur stdDeviation="20"/>
<feComposite in2="hardAlpha" operator="out"/>
<feColorMatrix type="matrix" values="0 0 0 0 0.266667 0 0 0 0 0.376471 0 0 0 0 0.67451 0 0 0 0.1 0"/>
<feBlend mode="normal" in2="BackgroundImageFix" result="effect1_dropShadow_74_3302"/>
<feBlend mode="normal" in="SourceGraphic" in2="effect1_dropShadow_74_3302" result="shape"/>
</filter>
<filter id="filter1_d_74_3302" x="0" y="65.6593" width="517.877" height="321.183" filterUnits="userSpaceOnUse" color-interpolation-filters="sRGB">
<feFlood flood-opacity="0" result="BackgroundImageFix"/>
<feColorMatrix in="SourceAlpha" type="matrix" values="0 0 0 0 0 0 0 0 0 0 0 0 0 0 0 0 0 0 127 0" result="hardAlpha"/>
<feMorphology radius="20" operator="dilate" in="SourceAlpha" result="effect1_dropShadow_74_3302"/>
<feOffset dx="10" dy="10"/>
<feGaussianBlur stdDeviation="20"/>
<feComposite in2="hardAlpha" operator="out"/>
<feColorMatrix type="matrix" values="0 0 0 0 0.266667 0 0 0 0 0.376471 0 0 0 0 0.67451 0 0 0 0.1 0"/>
<feBlend mode="normal" in2="BackgroundImageFix" result="effect1_dropShadow_74_3302"/>
<feBlend mode="normal" in="SourceGraphic" in2="effect1_dropShadow_74_3302" result="shape"/>
</filter>
<filter id="filter2_d_74_3302" x="0" y="30.0609" width="517.877" height="321.183" filterUnits="userSpaceOnUse" color-interpolation-filters="sRGB">
<feFlood flood-opacity="0" result="BackgroundImageFix"/>
<feColorMatrix in="SourceAlpha" type="matrix" values="0 0 0 0 0 0 0 0 0 0 0 0 0 0 0 0 0 0 127 0" result="hardAlpha"/>
<feMorphology radius="20" operator="dilate" in="SourceAlpha" result="effect1_dropShadow_74_3302"/>
<feOffset dx="10" dy="10"/>
<feGaussianBlur stdDeviation="20"/>
<feComposite in2="hardAlpha" operator="out"/>
<feColorMatrix type="matrix" values="0 0 0 0 0.266667 0 0 0 0 0.376471 0 0 0 0 0.67451 0 0 0 0.1 0"/>
<feBlend mode="normal" in2="BackgroundImageFix" result="effect1_dropShadow_74_3302"/>
<feBlend mode="normal" in="SourceGraphic" in2="effect1_dropShadow_74_3302" result="shape"/>
</filter>
<filter id="filter3_d_74_3302" x="0" y="0" width="517.877" height="321.183" filterUnits="userSpaceOnUse" color-interpolation-filters="sRGB">
<feFlood flood-opacity="0" result="BackgroundImageFix"/>
<feColorMatrix in="SourceAlpha" type="matrix" values="0 0 0 0 0 0 0 0 0 0 0 0 0 0 0 0 0 0 127 0" result="hardAlpha"/>
<feMorphology radius="20" operator="dilate" in="SourceAlpha" result="effect1_dropShadow_74_3302"/>
<feOffset dx="10" dy="10"/>
<feGaussianBlur stdDeviation="20"/>
<feComposite in2="hardAlpha" operator="out"/>
<feColorMatrix type="matrix" values="0 0 0 0 0.266667 0 0 0 0 0.376471 0 0 0 0 0.67451 0 0 0 0.1 0"/>
<feBlend mode="normal" in2="BackgroundImageFix" result="effect1_dropShadow_74_3302"/>
<feBlend mode="normal" in="SourceGraphic" in2="effect1_dropShadow_74_3302" result="shape"/>
</filter>
<clipPath id="clip0_74_3302">
<rect width="79.5945" height="104.015" fill="white" transform="matrix(0.941054 -0.338257 0.763466 0.645848 174 122.923)"/>
</clipPath>
</defs>
</svg>
