<svg width="87" height="48" viewBox="0 0 87 48" fill="none" xmlns="http://www.w3.org/2000/svg">
<path fill-rule="evenodd" clip-rule="evenodd" d="M77.4641 4.3269C78.7074 4.3269 79.6524 5.3175 79.6524 6.55575C79.6524 7.79399 78.6577 8.73506 77.4641 8.73506C76.2207 8.73506 75.2261 7.79399 75.2261 6.55575C75.2261 5.3175 76.2705 4.3269 77.4641 4.3269ZM77.4641 4.72314C78.3593 4.72314 79.155 5.41656 79.2545 6.25857C79.0058 5.61468 78.3593 5.11938 77.5636 5.11938C76.5689 5.11938 75.7731 5.91186 75.7731 6.90245C75.7731 7.00151 75.8229 7.05104 75.8229 7.1501C75.7234 6.95198 75.6737 6.75386 75.6737 6.50622C75.6737 5.51562 76.4694 4.72314 77.4641 4.72314Z" fill="#2962FF"/>
<path fill-rule="evenodd" clip-rule="evenodd" d="M77.7619 12.3984L77.1652 15.4684L66.2269 18.885L68.3151 14.28C67.8179 14.0324 67.4201 13.6858 66.9727 13.3392C66.8235 12.745 66.6246 12.2994 66.6246 11.7052L61.5532 11.7547L69.2101 3.18847L72.2927 3.93121C76.668 0.0689721 81.1428 0.0194562 86.5125 0.81171C84.9712 5.91184 83.0819 10.0217 77.7619 12.3984ZM84.3746 2.24767C78.0105 1.35638 73.5357 5.07007 72.8396 6.06039L69.5581 5.31765L65.6302 9.62553H68.9117C68.9117 9.62553 67.9174 10.5663 68.4145 12.2499C69.757 13.3887 71.0994 12.8441 71.0994 12.8441L69.757 15.7655L75.425 14.0324L76.0714 10.8634C77.2647 10.6654 82.6344 8.23909 84.3746 2.24767Z" fill="#2962FF"/>
<path fill-rule="evenodd" clip-rule="evenodd" d="M32.7152 39.8788C38.6319 37.7496 50.2166 32.0553 65.7291 17.052C55.5366 25.0241 41.6648 33.2437 28.6382 37.205C26.6494 37.7991 25.8042 38.1458 24.064 38.7895C24.412 38.7895 36.5933 51.8121 47.4323 40.5225C48.8741 40.9186 50.3657 41.1662 51.8573 41.1662C60.2599 41.1662 67.0218 34.4321 67.0218 26.0639C67.0218 23.8357 66.5246 21.756 65.6794 19.8744C64.685 20.8152 63.7403 21.756 62.9448 22.5483C63.2929 23.6871 63.4917 24.826 63.4917 26.0639C63.4917 32.4514 58.2712 37.6506 51.8573 37.6506C49.8188 37.6506 47.9294 37.1554 46.239 36.2146C44.5485 39.1856 41.267 41.2157 37.5877 41.2157C35.8475 41.1662 34.2068 40.7206 32.7152 39.8788Z" fill="#2962FF"/>
<path fill-rule="evenodd" clip-rule="evenodd" d="M63.2436 15.0229C63.2436 15.0229 53.051 21.3115 36.7926 27.0058C24.1638 31.4622 13.126 31.8088 0 33.0962C18.5952 43.148 51.5097 25.2727 63.2436 15.0229Z" fill="#2962FF"/>
<path fill-rule="evenodd" clip-rule="evenodd" d="M20.7329 15.3195C23.1692 8.18918 29.9808 3.28711 37.7371 3.28711C43.7034 3.28711 49.1726 6.20854 52.5038 11.0116C54.6418 11.1106 56.6306 11.6058 58.4702 12.4971L53.1999 14.5767C52.7524 14.5272 52.305 14.5272 51.8575 14.5272C51.41 14.5272 50.9625 14.5767 50.515 14.5767C48.1285 9.97175 43.256 6.85225 37.6873 6.85225C30.7266 6.85225 24.9094 11.7543 23.5669 18.2409C20.0865 18.6865 17.2028 20.8652 15.8106 23.8857L17.5508 23.7867C37.8862 23.6381 62.3981 12.6456 62.3981 12.6456C45.0956 22.5488 30.7763 27.5994 11.2861 28.0945C11.3359 22.1526 15.214 17.0525 20.7329 15.3195Z" fill="#2962FF"/>
</svg>
