<svg width="34" height="35" viewBox="0 0 34 35" fill="none" xmlns="http://www.w3.org/2000/svg">
<path fill-rule="evenodd" clip-rule="evenodd" d="M5.11132 6.00856C4.18262 7.39846 4.18262 9.33332 4.18262 13.203V19.0089C4.18262 19.2661 4.18262 19.5147 4.18289 19.7552C4.18454 21.2083 4.18536 21.9349 4.70536 22.3794C4.9059 22.5508 5.21377 22.6883 5.47529 22.7231C6.1534 22.8134 6.72303 22.3036 7.86228 21.2841L12.6622 16.9888C13.1113 16.5869 13.3358 16.386 13.4255 16.1434C13.4978 15.9476 13.5097 15.7346 13.4595 15.5321C13.3973 15.281 13.1965 15.0564 12.7948 14.6071L12.1797 13.9193C12.0555 13.7804 12.1522 13.5613 12.3376 13.5617L24.8827 13.5896C25.0801 13.59 25.1747 13.8344 25.0282 13.9655L12.5537 25.1287C11.5937 25.9878 11.1137 26.4174 11.0361 26.9516C10.9665 27.4305 11.1824 27.9956 11.5536 28.3061C11.9678 28.6524 12.5872 28.6524 13.8262 28.6524H19.632C23.5017 28.6524 25.4366 28.6524 26.8265 27.7237C27.4282 27.3217 27.9448 26.805 28.3468 26.2033C29.2756 24.8134 29.2756 22.8786 29.2756 19.0089V13.203C29.2756 9.33332 29.2756 7.39846 28.3468 6.00856C27.9448 5.40685 27.4282 4.89023 26.8265 4.48818C25.4366 3.55948 23.5017 3.55948 19.632 3.55948H13.8262C9.95646 3.55948 8.0216 3.55948 6.63169 4.48818C6.02999 4.89023 5.51337 5.40685 5.11132 6.00856Z" fill="url(#paint0_linear_204_1385)"/>
<defs>
<linearGradient id="paint0_linear_204_1385" x1="9.41031" y1="2.16543" x2="23.3508" y2="33.8801" gradientUnits="userSpaceOnUse">
<stop stop-color="#FFA767"/>
<stop offset="1" stop-color="#F93023"/>
</linearGradient>
</defs>
</svg>
