<svg width="230" height="126" viewBox="0 0 230 126" fill="none" xmlns="http://www.w3.org/2000/svg">
<path fill-rule="evenodd" clip-rule="evenodd" d="M134.883 81.8443C125.527 88.115 111.966 91.4606 100.291 91.4606C83.9194 91.4606 69.1811 85.9546 58.031 76.7972C57.1549 76.0771 57.9399 75.0957 58.9911 75.6565C71.0242 82.0227 85.9027 85.8527 101.272 85.8527C111.637 85.8527 123.039 83.9026 133.524 79.856C135.107 79.2443 136.432 80.7992 134.883 81.8443Z" fill="#FF9900"/>
<path fill-rule="evenodd" clip-rule="evenodd" d="M138.771 77.7978C137.58 76.4086 130.866 77.1415 127.853 77.4665C126.935 77.5684 126.794 76.8419 127.621 76.3194C132.969 72.8973 141.743 73.885 142.766 75.0321C143.789 76.1856 142.5 84.1832 137.475 88.0004C136.704 88.5867 135.968 88.2744 136.312 87.497C137.44 84.9352 139.97 79.1934 138.771 77.7978Z" fill="#FF9900"/>
<path fill-rule="evenodd" clip-rule="evenodd" d="M128.062 52.1599L128.062 48.8334C128.062 48.3299 128.482 47.9922 128.987 47.9922L145.365 47.9922C145.891 47.9922 146.311 48.3363 146.311 48.8334L146.311 51.6819C146.304 52.1599 145.863 52.7844 145.078 53.7721L136.591 64.7904C139.745 64.7203 143.074 65.1473 145.933 66.613C146.578 66.9443 146.753 67.4287 146.802 67.9066L146.802 71.4562C146.802 71.9405 146.213 72.5076 145.597 72.2145C140.558 69.812 133.865 69.5507 128.293 72.24C127.726 72.5204 127.13 71.9596 127.13 71.4753L127.13 68.1041C127.13 67.5625 127.137 66.6385 127.733 65.8164L137.565 52.9947L129.008 52.9947C128.482 52.9947 128.062 52.6569 128.062 52.1599Z" fill="#221F1F"/>
<path fill-rule="evenodd" clip-rule="evenodd" d="M68.3158 72.9166L63.3329 72.9166C62.8564 72.8848 62.4779 72.5598 62.4429 72.1456L62.4429 48.8919C62.4429 48.4267 62.8704 48.0571 63.403 48.0571L68.0495 48.0571C68.533 48.0762 68.9185 48.414 68.9535 48.8346L68.9535 51.8743L69.0446 51.8743C70.2571 48.9365 72.5347 47.5664 75.6043 47.5664C78.723 47.5664 80.6713 48.9365 82.073 51.8743C83.2784 48.9365 86.0186 47.5664 88.955 47.5664C91.0435 47.5664 93.3282 48.3502 94.7228 50.1091C96.2997 52.0655 95.9773 54.9077 95.9773 57.3994L95.9703 72.0755C95.9703 72.5407 95.5428 72.9166 95.0102 72.9166L90.0343 72.9166C89.5367 72.8848 89.1373 72.5216 89.1373 72.0755L89.1373 59.7508C89.1373 58.7695 89.2354 56.3224 88.9971 55.392C88.6257 53.8307 87.5113 53.391 86.0676 53.391C84.8622 53.391 83.6007 54.1238 83.0891 55.2964C82.5775 56.469 82.6266 58.4317 82.6266 59.7508L82.6266 72.0755C82.6266 72.5407 82.1991 72.9166 81.6665 72.9166L76.6906 72.9166C76.186 72.8848 75.7936 72.5216 75.7936 72.0755L75.7866 59.7508C75.7866 57.1572 76.2561 53.34 72.717 53.34C69.1357 53.34 69.2759 57.0616 69.2759 59.7508L69.2759 72.0755C69.2759 72.5407 68.8484 72.9166 68.3158 72.9166Z" fill="#221F1F"/>
<path fill-rule="evenodd" clip-rule="evenodd" d="M181.395 72.9164L176.433 72.9164C175.936 72.8845 175.536 72.5213 175.536 72.0752L175.529 48.8152C175.571 48.3882 175.985 48.0569 176.489 48.0569L181.108 48.0569C181.542 48.076 181.9 48.3436 181.998 48.7069L181.998 52.2628L182.089 52.2628C183.483 49.0829 185.439 47.5662 188.88 47.5662C191.115 47.5662 193.295 48.299 194.697 50.3064C196 52.1672 196 55.2961 196 57.5457L196 72.1836C195.944 72.5914 195.531 72.9164 195.04 72.9164L190.043 72.9164C189.588 72.8845 189.209 72.5787 189.16 72.1836L189.16 59.553C189.16 57.0104 189.482 53.2888 186.041 53.2888C184.829 53.2888 183.715 54.028 183.161 55.1496C182.46 56.5707 182.369 57.9854 182.369 59.553L182.369 72.0752C182.362 72.5404 181.928 72.9164 181.395 72.9164" fill="#221F1F"/>
<path fill-rule="evenodd" clip-rule="evenodd" d="M160.413 47.5662C167.806 47.5662 171.808 53.3398 171.808 60.681C171.808 67.7737 167.386 73.4007 160.413 73.4007C153.152 73.4007 149.199 67.6271 149.199 60.4325C149.199 53.1932 153.201 47.5662 160.413 47.5662ZM160.455 52.3138C156.782 52.3138 156.551 56.8638 156.551 59.6996C156.551 62.5418 156.502 68.6085 160.413 68.6085C164.274 68.6085 164.456 63.7144 164.456 60.732C164.456 58.7692 164.365 56.4241 163.714 54.5633C163.153 52.9447 162.039 52.3138 160.455 52.3138Z" fill="#221F1F"/>
<path fill-rule="evenodd" clip-rule="evenodd" d="M115.006 61.8076C115.006 63.5728 115.055 65.0449 114.074 66.6126C113.282 67.8871 112.02 68.6709 110.626 68.6709C108.712 68.6709 107.591 67.3454 107.591 65.389C107.591 61.5272 111.396 60.8262 115.006 60.8262L115.006 61.8076ZM120.031 72.8514C119.701 73.119 119.225 73.1381 118.853 72.9597C117.199 71.7107 116.898 71.1308 115.994 69.9391C113.261 72.4754 111.319 73.2337 107.78 73.2337C103.582 73.2337 100.323 70.8822 100.323 66.1729C100.323 62.4959 102.51 59.9914 105.636 58.7679C108.341 57.6845 112.118 57.4934 115.006 57.1939L115.006 56.6076C115.006 55.5306 115.097 54.2561 114.396 53.3257C113.793 52.4909 112.63 52.1467 111.6 52.1467C109.7 52.1467 108.012 53.0325 107.598 54.8679C107.514 55.2757 107.185 55.6772 106.729 55.6963L101.9 55.2247C101.494 55.1419 101.038 54.8424 101.157 54.2752C102.265 48.9477 107.563 47.3418 112.301 47.3418C114.725 47.3418 117.893 47.9281 119.806 49.5977C122.231 51.6561 122 54.4027 122 57.3914L122 64.4523C122 66.5743 122.967 67.5047 123.878 68.6518C124.194 69.0597 124.264 69.5504 123.857 69.8562C122.841 70.6273 121.033 72.0612 120.038 72.8641L120.031 72.8513" fill="#221F1F"/>
<path fill-rule="evenodd" clip-rule="evenodd" d="M49.6823 61.8079C49.6823 63.5731 49.7313 65.0452 48.7502 66.6128C47.9582 67.8874 46.7038 68.6712 45.3021 68.6712C43.3889 68.6712 42.2746 67.3457 42.2746 65.3893C42.2746 61.5275 46.08 60.8265 49.6823 60.8265L49.6823 61.8079ZM54.7072 72.8516C54.3778 73.1193 53.9012 73.1384 53.5298 72.96C51.8759 71.7109 51.5815 71.131 50.6704 69.9393C47.9372 72.4756 46.0029 73.234 42.4568 73.234C38.2658 73.234 35 70.8825 35 66.1731C35 62.4961 37.1936 59.9917 40.3122 58.7681C43.0174 57.6848 46.7949 57.4936 49.6823 57.1941L49.6823 56.6078C49.6823 55.5309 49.7734 54.2563 49.0796 53.3259C48.4698 52.4911 47.3065 52.147 46.2833 52.147C44.384 52.147 42.688 53.0328 42.2746 54.8681C42.1905 55.2759 41.8611 55.6774 41.4125 55.6965L36.5769 55.225C36.1704 55.1421 35.7218 54.8426 35.834 54.2755C36.9483 48.948 42.2395 47.342 46.9771 47.342C49.4019 47.342 52.5697 47.9283 54.4829 49.5979C56.9078 51.6563 56.6765 54.4029 56.6765 57.3917L56.6765 64.4525C56.6765 66.5746 57.6436 67.505 58.5547 68.6521C58.8771 69.0599 58.9472 69.5506 58.5407 69.8565C57.5245 70.6276 55.7164 72.0614 54.7212 72.8644L54.7072 72.8516" fill="#221F1F"/>
</svg>
