<svg width="230" height="126" viewBox="0 0 230 126" fill="none" xmlns="http://www.w3.org/2000/svg">
<path fill-rule="evenodd" clip-rule="evenodd" d="M76.4176 66.9928C75.6891 66.0009 74.4503 65.1914 72.9499 65.1914C70.1723 65.1914 68.1683 67.319 68.1683 70.1992C68.1683 73.0795 70.1723 75.207 72.9499 75.207C74.2469 75.207 75.4607 74.6517 76.0959 74.0981C76.1392 74.0613 76.1626 74.0078 76.1626 73.9509V72.3887C76.1626 72.2917 76.0842 72.2114 75.9858 72.2114H72.413C72.2713 72.2114 72.1563 72.0943 72.1563 71.9538V69.6339C72.1563 69.4917 72.273 69.3746 72.413 69.3746H78.8184V65.9324L76.7511 67.0697C76.641 67.1299 76.4943 67.0931 76.421 66.9928H76.4176ZM46.3463 68.6219H50.1809C51.2729 68.6219 51.9564 68.0031 51.9564 67.0212C51.9564 66.0846 51.2896 65.4205 50.1809 65.4205H46.3463C46.3151 65.4201 46.2841 65.4259 46.2552 65.4377C46.2262 65.4495 46.2 65.4669 46.1779 65.4891C46.1558 65.5112 46.1384 65.5376 46.1267 65.5666C46.1149 65.5956 46.1091 65.6267 46.1096 65.658V68.3844C46.1091 68.4157 46.1149 68.4468 46.1267 68.4758C46.1384 68.5049 46.1558 68.5312 46.1779 68.5534C46.2 68.5755 46.2262 68.593 46.2552 68.6048C46.2841 68.6165 46.3151 68.6224 46.3463 68.6219ZM61.8596 77.6039C61.8596 77.721 61.7646 77.8163 61.6479 77.8163H58.8386C58.7219 77.8163 58.6269 77.721 58.6269 77.6039V62.7761C58.6269 62.659 58.7219 62.5637 58.8386 62.5637H61.6496C61.7663 62.5637 61.8613 62.659 61.8613 62.7761L61.8596 77.6039ZM78.0098 42.1008L50.1459 62.5603H50.8628C53.7537 62.5603 55.2342 64.4119 55.2342 66.4475C55.2342 68.0315 54.4106 69.2006 53.3052 69.7175C53.1385 69.8045 53.1285 70.0654 53.3152 70.1423C54.604 70.6726 55.5326 72.0575 55.5326 73.6749C55.5326 75.9831 54.0321 77.8146 51.1145 77.8146H43.1103C43.079 77.8151 43.0481 77.8093 43.0191 77.7975C42.9902 77.7857 42.9639 77.7682 42.9419 77.7461C42.9198 77.7239 42.9024 77.6976 42.8906 77.6686C42.8789 77.6395 42.8731 77.6085 42.8735 77.5771V67.901L22.2085 83.0801C21.8134 83.3711 22.0168 84 22.5086 84H78.3099C78.59 84 78.8168 83.7725 78.8168 83.4898V75.7958C77.3229 77.1941 75.3606 78.0706 72.9482 78.0706C68.4868 78.0706 64.8456 74.9829 64.8456 70.1808C64.8456 65.3553 68.4884 62.2911 72.9482 62.2911C75.7541 62.2911 77.6164 63.5673 78.8168 65.1278V42.5106C78.8168 42.0925 78.3449 41.8533 78.0098 42.0992V42.1008ZM46.3446 74.9545H50.2959C51.503 74.9545 52.2299 74.3139 52.2299 73.2149C52.2299 72.2549 51.563 71.4754 50.2959 71.4754H46.3446C46.3134 71.475 46.2824 71.4808 46.2535 71.4926C46.2246 71.5044 46.1983 71.5218 46.1762 71.544C46.1542 71.5661 46.1367 71.5925 46.125 71.6215C46.1133 71.6505 46.1074 71.6816 46.1079 71.7129V74.7136C46.1074 74.7449 46.1133 74.776 46.125 74.805C46.1367 74.8341 46.1542 74.8604 46.1762 74.8826C46.1983 74.9047 46.2246 74.9222 46.2535 74.934C46.2824 74.9457 46.3134 74.9516 46.3446 74.9511V74.9545ZM94.9936 74.4911L93.2514 73.5846C93.1959 73.5573 93.1323 73.5517 93.0729 73.5686C93.0135 73.5856 92.9625 73.6241 92.9296 73.6766C92.1927 74.8357 90.834 75.6971 89.3585 75.6971C86.4575 75.6971 84.3069 73.3638 84.3069 70.1858C84.3069 66.961 86.4742 64.6745 89.3585 64.6745C90.834 64.6745 92.1927 65.5142 92.9296 66.69C92.9628 66.7431 93.0146 66.7818 93.0747 66.7985C93.1349 66.8152 93.1991 66.8087 93.2547 66.7804L94.9836 65.8353C95.117 65.7634 95.162 65.6012 95.0803 65.4707C93.9866 63.7429 92.176 62.2961 89.3585 62.2961C85.0321 62.2961 81.6893 65.4741 81.6893 70.1858C81.6893 74.8742 85.0488 78.0756 89.3585 78.0756C92.1727 78.0756 93.9633 76.592 95.0937 74.8641C95.177 74.7303 95.132 74.5664 94.9936 74.4962V74.4911ZM104.072 75.6954C101.104 75.6954 99.2133 73.317 99.2133 70.1841C99.2283 67.0145 101.121 64.6729 104.088 64.6729C107.034 64.6729 108.946 67.0145 108.946 70.1841C108.946 73.317 107.034 75.6954 104.088 75.6954H104.072ZM101.996 62.5654C98.7315 63.4418 96.5775 66.4124 96.5775 70.1892C96.5775 74.7387 99.6785 78.0789 104.073 78.0789C107.818 78.0789 110.642 75.6336 111.381 72.0575C112.581 66.2619 107.516 61.0684 101.998 62.5486L101.996 62.5654ZM129.805 62.5486H126.47C126.398 62.5476 126.327 62.569 126.267 62.6101C126.208 62.6511 126.162 62.7097 126.137 62.7778L122.106 73.245L118.054 62.7778C117.999 62.6406 117.868 62.5486 117.721 62.5486H114.387C114.286 62.5486 114.208 62.6289 114.208 62.7276V77.6223C114.208 77.7227 114.288 77.8013 114.387 77.8013H116.694C116.794 77.8013 116.872 77.721 116.872 77.6223V66.0243L121.507 77.721C121.527 77.7712 121.574 77.8013 121.624 77.8013H122.588C122.638 77.8013 122.688 77.7678 122.704 77.721L127.317 66.0243V77.6223C127.317 77.7227 127.397 77.8013 127.496 77.8013H129.838C129.938 77.8013 130.017 77.721 130.017 77.6223V62.7276C130.017 62.6273 129.937 62.5486 129.838 62.5486H129.805ZM163.871 62.5486H154.013C153.846 62.5486 153.738 62.6724 153.738 62.8246V77.5437C153.738 77.7109 153.861 77.8197 154.013 77.8197H163.869C164.036 77.8197 164.144 77.6959 164.144 77.5437V75.7406C164.144 75.5733 164.021 75.4646 163.869 75.4646H156.68C156.513 75.4646 156.405 75.3408 156.405 75.1886V71.4855C156.405 71.3182 156.528 71.2095 156.68 71.2095H163.712C163.879 71.2095 163.988 71.0857 163.988 70.9335V69.1304C163.988 68.9631 163.864 68.8544 163.712 68.8544H156.68C156.513 68.8544 156.405 68.7306 156.405 68.5784V65.1964C156.405 65.0291 156.528 64.9204 156.68 64.9204H163.872C164.039 64.9204 164.148 64.7966 164.148 64.6444V62.8413C164.148 62.6741 164.024 62.5654 163.872 62.5654L163.871 62.5486ZM174.261 69.7526H170.885C170.718 69.7526 170.613 69.6288 170.613 69.48V65.1747C170.613 65.0074 170.735 64.902 170.885 64.902H174.277C175.778 64.902 176.873 65.8387 176.873 67.3039C176.873 68.8093 175.78 69.7509 174.277 69.7509L174.261 69.7526ZM176.353 71.7313C178.054 71.3015 179.588 69.8413 179.588 67.3273C179.588 64.4922 177.607 62.5486 174.586 62.5486H168.201C168.034 62.5486 167.929 62.6707 167.929 62.8213V77.5286C167.929 77.6959 168.05 77.8029 168.201 77.8029H170.318C170.485 77.8029 170.59 77.6792 170.59 77.5286V72.3803C170.59 72.213 170.711 72.1077 170.861 72.1077H173.095C173.192 72.1077 173.262 72.1578 173.329 72.2415L176.52 77.6691C176.57 77.7528 176.658 77.8029 176.753 77.8029H179.204C179.417 77.8029 179.549 77.5688 179.437 77.3848L176.17 72.1394C176.07 71.9789 176.163 71.7765 176.346 71.7297L176.353 71.7313ZM200.528 64.9037H207.733C207.768 64.9037 207.803 64.8967 207.836 64.8832C207.868 64.8696 207.898 64.8497 207.922 64.8247C207.947 64.7997 207.967 64.77 207.98 64.7373C207.993 64.7047 208 64.6697 208 64.6344V62.833C208 62.6657 207.88 62.5654 207.733 62.5654H197.863C197.793 62.5654 197.725 62.5936 197.675 62.6437C197.625 62.6939 197.597 62.762 197.597 62.833V77.5487C197.597 77.716 197.717 77.8163 197.863 77.8163H207.733C207.768 77.8163 207.803 77.8093 207.836 77.7958C207.868 77.7822 207.898 77.7624 207.922 77.7373C207.947 77.7123 207.967 77.6826 207.98 77.65C207.993 77.6173 208 77.5823 208 77.547V75.7289C208 75.6936 207.993 75.6586 207.98 75.626C207.967 75.5933 207.947 75.5636 207.922 75.5386C207.898 75.5135 207.868 75.4937 207.836 75.4801C207.803 75.4666 207.768 75.4596 207.733 75.4596H200.548C200.477 75.4596 200.409 75.4314 200.359 75.3812C200.309 75.331 200.281 75.263 200.281 75.192V71.4754C200.281 71.3082 200.401 71.2078 200.548 71.2078H207.593C207.629 71.208 207.664 71.2012 207.696 71.1877C207.729 71.1743 207.759 71.1545 207.783 71.1294C207.808 71.1044 207.828 71.0746 207.842 71.0418C207.855 71.009 207.862 70.9739 207.862 70.9385V69.1053C207.862 68.938 207.742 68.8377 207.595 68.8377H200.528C200.492 68.8379 200.457 68.8311 200.425 68.8176C200.392 68.8042 200.362 68.7844 200.337 68.7593C200.312 68.7343 200.293 68.7045 200.279 68.6717C200.266 68.6389 200.259 68.6038 200.259 68.5684V65.1747C200.259 65.1392 200.266 65.1041 200.279 65.0713C200.293 65.0386 200.312 65.0088 200.337 64.9837C200.362 64.9587 200.392 64.9389 200.425 64.9254C200.457 64.912 200.492 64.9051 200.528 64.9054V64.9037ZM194.859 74.4293L193.117 73.5227C193.005 73.4642 192.863 73.506 192.795 73.6147C192.058 74.7738 190.699 75.6352 189.224 75.6352C186.323 75.6352 184.172 73.3019 184.172 70.1239C184.172 66.8991 186.34 64.6127 189.224 64.6127C190.699 64.6127 192.058 65.4523 192.795 66.6282C192.862 66.7386 193.007 66.7954 193.12 66.7185L194.849 65.7735C194.982 65.7015 195.027 65.5359 194.946 65.4088C193.852 63.681 192.042 62.2342 189.224 62.2342C184.898 62.2342 181.555 65.4122 181.555 70.1239C181.555 74.8123 184.914 78.0137 189.224 78.0137C192.038 78.0137 193.829 76.5301 194.959 74.8023C194.979 74.7723 194.993 74.7383 194.999 74.7025C195.005 74.6667 195.003 74.6301 194.994 74.5951C194.984 74.5602 194.967 74.5277 194.944 74.4999C194.921 74.4721 194.892 74.4498 194.859 74.4343V74.4293ZM149.489 62.5486H146.155C146.083 62.5476 146.012 62.569 145.952 62.6101C145.892 62.6511 145.847 62.7097 145.822 62.7778L141.79 73.245L137.739 62.7778C137.684 62.6406 137.552 62.5486 137.406 62.5486H134.071C133.971 62.5486 133.893 62.6289 133.893 62.7276V77.6223C133.893 77.7227 133.973 77.8013 134.071 77.8013H136.379C136.479 77.8013 136.557 77.721 136.557 77.6223V66.0243L141.175 77.7193C141.195 77.7695 141.242 77.7996 141.292 77.7996H142.256C142.306 77.7996 142.356 77.7661 142.372 77.7193L146.985 66.0227V77.6206C146.985 77.721 147.065 77.7996 147.164 77.7996H149.469C149.57 77.7996 149.648 77.7193 149.648 77.6206V62.7259C149.648 62.6256 149.568 62.547 149.469 62.547L149.489 62.5486Z" fill="#34344C"/>
</svg>
