<svg width="230" height="126" viewBox="0 0 230 126" fill="none" xmlns="http://www.w3.org/2000/svg">
<g clip-path="url(#clip0_357_480)">
<path d="M65.1005 50.0586C55.7963 50.0586 48.0432 53.4882 48.0432 63.8353C48.0432 72.0325 53.2566 77.1946 65.3407 77.1946C79.5642 77.1946 80.476 69.0538 80.476 69.0538L73.584 69.0538C73.584 69.0538 72.1063 73.4373 64.9203 73.4373C59.0674 73.4373 54.8578 70.002 54.8578 65.187L81.1967 65.187L81.1967 62.1654C81.1967 57.4018 77.7163 50.0586 65.1005 50.0586V50.0586ZM64.8602 53.9203C70.4315 53.9203 74.2297 56.8858 74.2297 61.3305L55.0103 61.3305C55.0103 56.6119 59.9678 53.9203 64.8602 53.9203V53.9203Z" fill="#E53238"/>
<path d="M81.192 40.0398L81.192 71.999C81.192 73.8131 81.043 76.3603 81.043 76.3603L87.6164 76.3603C87.6164 76.3603 87.8524 74.5309 87.8524 72.8589C87.8524 72.8589 91.1001 77.2735 99.9309 77.2735C109.23 77.2735 115.547 71.664 115.547 63.6273C115.547 56.1508 109.745 50.1375 99.9459 50.1375C90.7701 50.1375 87.9188 54.4428 87.9188 54.4428L87.9188 40.0398L81.192 40.0398ZM98.2492 54.0905C104.564 54.0905 108.58 58.1627 108.58 63.6273C108.58 69.4871 103.942 73.3206 98.2943 73.3206C91.5544 73.3206 87.9188 68.7482 87.9188 63.6794C87.9188 58.9564 91.1811 54.0905 98.2492 54.0905Z" fill="#0064D2"/>
<path d="M131.884 50.0586C117.887 50.0586 116.989 56.7178 116.989 57.7819L123.956 57.7819C123.956 57.7819 124.321 53.8942 131.404 53.8942C136.006 53.8942 139.572 55.7244 139.572 59.2431L139.572 60.4955L131.404 60.4955C120.56 60.4955 114.827 63.2518 114.827 68.8451C114.827 74.3496 120.124 77.3446 127.282 77.3446C137.037 77.3446 140.18 72.6611 140.18 72.6611C140.18 74.5239 140.345 76.3597 140.345 76.3597L146.539 76.3597C146.539 76.3597 146.299 74.0842 146.299 72.6285L146.299 60.0454C146.299 51.7949 138.639 50.0586 131.884 50.0586V50.0586ZM139.572 64.2528L139.572 65.9227C139.572 68.1007 138.025 73.5156 128.919 73.5156C123.932 73.5156 121.794 71.3532 121.794 68.8451C121.794 64.2822 128.994 64.2528 139.572 64.2528V64.2528Z" fill="#F5AF02"/>
<path d="M142.546 51.1038L150.384 51.1038L161.633 70.6842L172.856 51.1038L179.956 51.1038L159.514 85.9631L152.066 85.9631L157.965 76.2456L142.546 51.1038Z" fill="#86B817"/>
</g>
<defs>
<clipPath id="clip0_357_480">
<rect width="132" height="46" fill="white" transform="translate(48 40)"/>
</clipPath>
</defs>
</svg>
