<svg width="230" height="126" viewBox="0 0 230 126" fill="none" xmlns="http://www.w3.org/2000/svg">
<g clip-path="url(#clip0_332_4986)">
<mask id="mask0_332_4986" style="mask-type:luminance" maskUnits="userSpaceOnUse" x="30" y="3" width="171" height="120">
<path d="M30.0376 3.81152H200.411V122.188H30.0376V3.81152Z" fill="#00A1E0"/>
</mask>
<g mask="url(#mask0_332_4986)">
<path fill-rule="evenodd" clip-rule="evenodd" d="M100.78 16.7708C106.28 11.0762 113.934 7.54982 122.39 7.54982C133.665 7.54982 143.436 13.7802 148.698 23.0634C153.368 20.9867 158.427 19.9145 163.543 19.9171C183.837 19.9171 200.311 36.4276 200.311 56.8009C200.311 77.1742 183.837 93.6846 163.543 93.6846C161.062 93.6846 158.645 93.4367 156.277 92.9681C151.673 101.13 142.872 106.675 132.85 106.675C128.77 106.683 124.742 105.762 121.075 103.983C116.408 114.887 105.541 122.55 92.8878 122.55C79.6714 122.55 68.4593 114.264 64.1373 102.613C62.2137 103.017 60.253 103.22 58.287 103.218C42.565 103.218 29.8496 90.3838 29.8496 74.621C29.8496 64.0293 35.5747 54.8084 44.0683 49.8241C42.2664 45.6952 41.3388 41.2414 41.3436 36.7403C41.3436 18.5477 56.1886 3.84399 74.4787 3.84399C85.1897 3.84399 94.7732 8.92174 100.786 16.8032" fill="#00A1E0"/>
</g>
<path fill-rule="evenodd" clip-rule="evenodd" d="M54.6794 65.3675C54.5723 65.6454 54.7176 65.7033 54.752 65.7525C55.0721 65.983 55.3972 66.15 55.7229 66.3376C57.4642 67.2534 59.1053 67.5213 60.8216 67.5213C64.3167 67.5213 66.4903 65.6709 66.4903 62.6928V62.6342C66.4903 59.8804 64.0349 58.8773 61.7424 58.1608L61.4423 58.0643C59.7073 57.5048 58.2102 57.0176 58.2102 55.8836V55.8257C58.2102 54.8537 59.0872 54.1373 60.4401 54.1373C61.9434 54.1373 63.7348 54.6351 64.8811 55.2649C64.8811 55.2649 65.2206 55.483 65.344 55.1572C65.411 54.9808 65.9954 53.4251 66.0581 53.2507C66.1245 53.0681 66.008 52.9304 65.8883 52.8594C64.5729 52.0619 62.7565 51.5199 60.8773 51.5199L60.5284 51.5211C57.3277 51.5211 55.0915 53.4463 55.0915 56.2001V56.2593C55.0915 59.1627 57.5594 60.1097 59.8645 60.7639L60.2353 60.8785C61.914 61.3919 63.3672 61.838 63.3672 63.0093V63.0679C63.3672 64.1457 62.4213 64.9494 60.9055 64.9494C60.3161 64.9494 58.4376 64.9395 56.4019 63.6597C56.1557 63.5171 56.0154 63.4143 55.8256 63.299C55.7254 63.2386 55.4749 63.1295 55.3659 63.456L54.6769 65.3625M105.852 65.3625C105.744 65.6404 105.89 65.6983 105.925 65.7475C106.244 65.9781 106.571 66.145 106.896 66.3326C108.638 67.2484 110.279 67.5163 111.995 67.5163C115.49 67.5163 117.664 65.6659 117.664 62.6878V62.6292C117.664 59.8754 115.215 58.8723 112.916 58.1558L112.616 58.0593C110.881 57.4998 109.384 57.0126 109.384 55.8786V55.8207C109.384 54.8488 110.261 54.1323 111.614 54.1323C113.117 54.1323 114.902 54.6301 116.055 55.26C116.055 55.26 116.394 55.478 116.518 55.1522C116.584 54.9759 117.17 53.4201 117.226 53.2457C117.293 53.0631 117.176 52.9254 117.057 52.8544C115.741 52.0569 113.925 51.5149 112.046 51.5149L111.696 51.5161C108.496 51.5161 106.259 53.4413 106.259 56.1951V56.2543C106.259 59.1577 108.727 60.1047 111.032 60.7589L111.403 60.8735C113.087 61.3869 114.534 61.833 114.534 63.0043V63.0629C114.534 64.1407 113.589 64.9444 112.073 64.9444C111.482 64.9444 109.599 64.9345 107.569 63.6548C107.323 63.5121 107.179 63.4136 106.992 63.294C106.929 63.2541 106.634 63.1395 106.533 63.451L105.844 65.3575M140.796 59.5259C140.796 61.2081 140.48 62.5352 139.862 63.4759C139.246 64.4043 138.315 64.8591 137.019 64.8591C135.722 64.8591 134.795 64.408 134.187 63.4822C133.576 62.5476 133.267 61.2143 133.267 59.5321C133.267 57.8499 133.577 56.5291 134.187 55.6008C134.794 54.6787 135.716 54.2363 137.019 54.2363C138.322 54.2363 139.249 54.683 139.862 55.6008C140.484 56.5291 140.796 57.8499 140.796 59.5321M143.715 56.4107C143.427 55.445 142.982 54.5977 142.387 53.8874C141.791 53.1772 141.04 52.604 140.144 52.1928C139.255 51.7784 138.203 51.5697 137.012 51.5697C135.822 51.5697 134.776 51.7797 133.881 52.1928C132.991 52.6065 132.233 53.1772 131.638 53.8874C131.044 54.5977 130.598 55.445 130.31 56.4107C130.025 57.3702 129.881 58.4169 129.881 59.5321C129.881 60.6474 130.025 61.6941 130.31 62.6535C130.596 63.6192 131.043 64.4666 131.638 65.1768C132.234 65.8871 132.991 66.4541 133.881 66.859C134.776 67.2628 135.829 67.4684 137.012 67.4684C138.196 67.4684 139.249 67.2628 140.138 66.859C141.027 66.4553 141.785 65.8871 142.38 65.1768C142.975 64.4666 143.42 63.6192 143.708 62.6535C143.993 61.6941 144.137 60.6474 144.137 59.5321C144.137 58.4231 143.993 57.3702 143.708 56.4107M167.698 64.3856C167.603 64.1033 167.326 64.2099 167.326 64.2099C166.902 64.3713 166.449 64.5208 165.967 64.5955C165.48 64.6716 164.939 64.7096 164.369 64.7096C162.96 64.7096 161.832 64.2915 161.031 63.4635C160.223 62.6349 159.772 61.3016 159.778 59.4947C159.782 57.8499 160.182 56.6163 160.899 55.6693C161.607 54.7347 162.697 54.2488 164.138 54.2488C165.34 54.2488 166.261 54.3877 167.226 54.688C167.226 54.688 167.454 54.7871 167.564 54.4874C167.82 53.7834 168.009 53.2787 168.284 52.5061C168.362 52.285 168.171 52.1915 168.102 52.1647C167.724 52.0177 166.83 51.7766 166.154 51.675C165.521 51.5791 164.788 51.5292 163.962 51.5292C162.734 51.5292 161.644 51.7379 160.711 52.1516C159.777 52.5647 158.988 53.136 158.362 53.8463C157.735 54.5566 157.259 55.4039 156.94 56.3696C156.624 57.3291 156.464 58.382 156.464 59.4972C156.464 61.9022 157.115 63.8523 158.406 65.279C159.696 66.712 161.638 67.4347 164.168 67.4347C165.665 67.4347 167.2 67.1338 168.302 66.6995C168.302 66.6995 168.513 66.5986 168.421 66.3544L167.701 64.3856M172.806 57.906C172.946 56.9714 173.203 56.1926 173.608 55.5883C174.213 54.6662 175.136 54.1616 176.433 54.1616C177.729 54.1616 178.587 54.6687 179.201 55.5883C179.608 56.1958 179.786 57.0026 179.853 57.906L172.775 57.9048L172.806 57.906ZM182.64 55.85C182.391 54.9217 181.776 53.9809 181.375 53.551C180.736 52.8719 180.116 52.3921 179.496 52.1305C178.6 51.7518 177.637 51.5574 176.664 51.5591C175.43 51.5591 174.309 51.7666 173.401 52.1884C172.493 52.6133 171.729 53.1915 171.127 53.9142C170.527 54.6369 170.075 55.4905 169.787 56.4687C169.499 57.4344 169.353 58.4935 169.353 59.6025C169.353 60.7365 169.504 61.7894 169.801 62.7426C170.101 63.7021 170.584 64.5432 171.236 65.241C171.887 65.945 172.72 66.4933 173.722 66.8796C174.718 67.2628 175.927 67.4615 177.311 67.4572C180.168 67.4478 181.671 66.8154 182.285 66.4728C182.394 66.4117 182.498 66.3064 182.369 66.003L181.724 64.2024C181.625 63.9339 181.352 64.0311 181.352 64.0311C180.644 64.294 179.642 64.7663 177.293 64.76C175.758 64.7575 174.624 64.3071 173.91 63.6012C173.184 62.8785 172.82 61.8255 172.764 60.3302L182.661 60.3377C182.661 60.3377 182.921 60.3352 182.948 60.0823C182.959 59.9776 183.287 58.0636 182.653 55.8518L182.64 55.85ZM93.6949 57.906C93.8346 56.9714 94.0927 56.1926 94.4967 55.5883C95.103 54.6662 96.025 54.1616 97.3216 54.1616C98.6182 54.1616 99.4764 54.6687 100.09 55.5883C100.497 56.1958 100.675 57.0026 100.742 57.906L93.6636 57.9048L93.6949 57.906ZM103.529 55.85C103.281 54.9217 102.665 53.9809 102.264 53.551C101.625 52.8719 101.005 52.3921 100.385 52.1305C99.4893 51.7518 98.5262 51.5574 97.5534 51.5591C96.3194 51.5591 95.1982 51.7666 94.29 52.1884C93.3817 52.6133 92.6176 53.1915 92.0162 53.9142C91.4168 54.6369 90.9639 55.4905 90.6758 56.4687C90.3883 57.4344 90.2436 58.4935 90.2436 59.6025C90.2436 60.7365 90.3933 61.7894 90.6921 62.7426C90.9915 63.7021 91.4751 64.5432 92.1202 65.241C92.7717 65.945 93.6047 66.4933 94.6069 66.8796C95.6029 67.2628 96.8055 67.4615 98.196 67.4572C101.052 67.4478 102.556 66.8154 103.169 66.4728C103.278 66.4117 103.382 66.3064 103.253 66.003L102.608 64.2024C102.508 63.9339 102.235 64.0311 102.235 64.0311C101.527 64.294 100.525 64.7663 98.176 64.76C96.6477 64.7575 95.5076 64.3071 94.7936 63.6012C94.067 62.8785 93.7037 61.8255 93.6473 60.3302L103.544 60.3377C103.544 60.3377 103.805 60.3352 103.832 60.0823C103.842 59.9776 104.17 58.0636 103.536 55.8518L103.529 55.85ZM72.3356 64.3233C71.9479 64.0155 71.894 63.9401 71.7656 63.7401C71.5695 63.4392 71.4693 63.0112 71.4693 62.4629C71.4693 61.6031 71.7574 60.9801 72.3525 60.5626C72.3462 60.5639 73.2044 59.8274 75.2213 59.8524C76.119 59.8684 77.0147 59.9443 77.9022 60.0798V64.5469H77.9034C77.9034 64.5469 76.6507 64.8155 75.2351 64.9002C73.2244 65.0205 72.335 64.3245 72.3412 64.3264L72.3356 64.3233ZM76.2692 57.4076C75.8683 57.3783 75.3484 57.364 74.7283 57.364C73.8827 57.364 73.0622 57.4686 72.298 57.6742C71.5276 57.8811 70.8323 58.2013 70.2372 58.6275C69.6405 59.0509 69.1498 59.6051 68.8028 60.2474C68.4527 60.8953 68.2742 61.6554 68.2742 62.5152C68.2742 63.3875 68.4264 64.1414 68.727 64.7582C69.0217 65.37 69.4652 65.8989 70.0174 66.2971C70.5667 66.6946 71.2451 66.9886 72.028 67.1631C72.8047 67.3394 73.6817 67.4285 74.6463 67.4285C75.661 67.4285 76.6695 67.3438 77.6466 67.1799C78.4788 67.0371 79.3079 66.8768 80.1333 66.6989C80.4628 66.6235 80.8286 66.5245 80.8286 66.5245C81.0729 66.4628 81.0541 66.203 81.0541 66.203L81.0484 57.2313C81.0484 55.2625 80.5198 53.7983 79.4762 52.8949C78.4365 51.9915 76.9144 51.5367 74.9413 51.5367C74.2022 51.5367 73.0058 51.6364 72.2917 51.7791C72.2917 51.7791 70.137 52.1952 69.2476 52.8881C69.2476 52.8881 69.0521 53.0077 69.1586 53.2787L69.8602 55.1478C69.9472 55.3902 70.1846 55.3073 70.1846 55.3073C70.1846 55.3073 70.2592 55.278 70.3468 55.2263C72.2448 54.1983 74.65 54.2295 74.65 54.2295C75.7149 54.2295 76.5417 54.4444 77.0929 54.865C77.6322 55.2768 77.9072 55.8992 77.9072 57.2076V57.6231C77.0616 57.501 76.2786 57.4306 76.2786 57.4306L76.2692 57.4076ZM155.819 52.3423C155.833 52.3094 155.84 52.2741 155.841 52.2383C155.841 52.2025 155.834 52.167 155.82 52.134C155.806 52.101 155.786 52.0711 155.76 52.0461C155.734 52.0211 155.704 52.0014 155.67 51.9884C155.502 51.9248 154.662 51.7485 154.017 51.7087C152.776 51.6314 152.087 51.8395 151.467 52.1161C150.855 52.3909 150.177 52.8326 149.801 53.3435L149.8 52.1473C149.8 51.9828 149.683 51.8501 149.516 51.8501H146.986C146.821 51.8501 146.702 51.9828 146.702 52.1473V66.7886C146.703 66.8677 146.734 66.9435 146.79 66.9995C146.847 67.0554 146.923 67.0869 147.002 67.0871H149.596C149.675 67.0869 149.751 67.0554 149.807 66.9994C149.864 66.9435 149.895 66.8677 149.895 66.7886V59.4368C149.895 58.4524 150.004 57.4742 150.221 56.8574C150.436 56.2475 150.727 55.7609 151.086 55.412C151.428 55.075 151.847 54.825 152.307 54.683C152.739 54.5598 153.186 54.4973 153.635 54.4974C154.152 54.4974 154.719 54.6295 154.719 54.6295C154.909 54.6506 155.015 54.5347 155.08 54.364C155.249 53.9148 155.731 52.5697 155.825 52.3018" fill="#FFFFFE"/>
<path fill-rule="evenodd" clip-rule="evenodd" d="M131.599 45.5849C131.278 45.4885 130.952 45.4115 130.622 45.3544C130.178 45.2807 129.729 45.2461 129.279 45.2509C127.492 45.2509 126.083 45.7531 125.094 46.745C124.112 47.7294 123.444 49.229 123.109 51.2022L122.988 51.8682H120.745C120.745 51.8682 120.471 51.857 120.413 52.1542L120.045 54.1977C120.019 54.3934 120.104 54.5155 120.367 54.5142H122.551L120.335 66.8149C120.162 67.8055 119.963 68.6204 119.743 69.2378C119.527 69.8472 119.315 70.3039 119.054 70.6353C118.802 70.9562 118.563 71.1923 118.15 71.33C117.809 71.444 117.417 71.4964 116.987 71.4964C116.748 71.4964 116.43 71.4565 116.195 71.4098C115.96 71.3636 115.838 71.3113 115.662 71.2378C115.662 71.2378 115.406 71.1406 115.305 71.396C115.223 71.6048 114.641 73.1966 114.572 73.3935C114.502 73.5879 114.6 73.7412 114.724 73.7854C115.015 73.8888 115.231 73.9549 115.627 74.0477C116.177 74.1767 116.64 74.1848 117.074 74.1848C117.984 74.1848 118.812 74.0577 119.5 73.8109C120.191 73.5623 120.793 73.1293 121.325 72.5431C121.901 71.9107 122.263 71.2484 122.61 70.345C122.952 69.4497 123.244 68.3382 123.478 67.0429L125.704 54.5142H128.958C128.958 54.5142 129.233 54.5242 129.29 54.2283L129.658 52.1847C129.684 51.9891 129.6 51.867 129.336 51.8682H126.177C126.192 51.7972 126.336 50.6919 126.698 49.6514C126.853 49.2072 127.144 48.849 127.391 48.6029C127.622 48.3685 127.905 48.1928 128.219 48.0907C128.562 47.9852 128.92 47.9339 129.279 47.9387C129.577 47.9387 129.869 47.9742 130.091 48.0203C130.397 48.0851 130.516 48.1194 130.596 48.1431C130.918 48.2409 130.962 48.1462 131.025 47.9911L131.78 45.9276C131.858 45.7058 131.669 45.6123 131.599 45.5849ZM87.4555 66.841C87.4555 67.0055 87.3378 67.1395 87.1724 67.1395H84.5523C84.3863 67.1395 84.2686 67.0055 84.2686 66.841V45.8646C84.2686 45.7008 84.3863 45.5681 84.5523 45.5681H87.1724C87.3378 45.5681 87.4555 45.7008 87.4555 45.8646V66.841Z" fill="#FFFFFE"/>
</g>
<defs>
<clipPath id="clip0_332_4986">
<rect width="171" height="119" fill="white" transform="translate(30 3.5)"/>
</clipPath>
</defs>
</svg>
