<svg width="230" height="126" viewBox="0 0 230 126" fill="none" xmlns="http://www.w3.org/2000/svg">
<path d="M63.279 42.8291C63.0984 42.8291 59.3066 42.468 59.3066 42.468C59.3066 42.468 56.5982 39.7596 56.2371 39.579C56.0565 39.3984 56.0565 39.3984 55.876 39.3984L53.7092 83.8164L69.2375 80.3858C69.2375 80.3858 63.8206 43.5513 63.8206 43.1902C63.8206 43.0097 63.4595 42.8291 63.279 42.8291Z" fill="#5A863E"/>
<path fill-rule="evenodd" clip-rule="evenodd" d="M54.876 39.3986L52.7092 83.8166L24 78.3997C24 78.3997 27.6112 49.8711 27.7918 48.9683L27.8014 48.9006C27.9728 47.6978 27.9985 47.5173 29.4168 47.1627C29.8319 47.0244 30.2351 46.886 30.6297 46.7507C31.7797 46.3561 32.8553 45.9871 33.9309 45.7182C35.0142 41.5653 38.0838 33.4401 44.5839 33.6206C45.4867 33.6206 46.5701 33.9818 47.2924 35.0651H47.4729C50.1813 35.0651 51.8064 37.4124 52.7092 39.9403C53.612 39.5791 54.1537 39.3986 54.1537 39.3986C54.1898 39.3986 54.2403 39.3914 54.301 39.3827C54.4682 39.3588 54.7122 39.324 54.9423 39.3991C54.923 39.3986 54.9013 39.3986 54.876 39.3986ZM44.4034 35.2457C44.6677 35.2457 44.8353 35.3424 45.0478 35.4651C45.1256 35.51 45.2094 35.5584 45.3062 35.6068C43.1395 36.5096 40.9727 38.8569 39.8894 43.9126L35.917 44.996C37.1809 41.3848 39.7088 35.2457 44.4034 35.2457ZM46.3896 37.0513C46.7507 38.1347 47.1118 39.3986 47.1118 41.3848V41.7459L41.8755 43.1904C42.9589 39.3986 44.7645 37.7735 46.3896 37.0513ZM51.0841 40.3014L48.7368 41.0236V40.482C48.7368 38.8569 48.5563 37.593 48.1952 36.5096C49.4591 36.8707 50.5425 38.4958 51.0841 40.3014ZM45.4867 57.2741L47.4728 51.4961C47.4728 51.4961 46.2089 50.5933 43.1394 50.7739C36.4586 50.7739 33.028 55.2879 33.028 59.9825C33.028 63.122 34.7889 64.5574 36.3354 65.818C37.5461 66.8049 38.6253 67.6847 38.6253 69.1911C38.6253 70.0939 38.0837 71.1773 36.6392 71.1773C34.4724 71.1773 31.9446 69.0105 31.9446 69.0105L30.6807 73.344C30.6807 73.344 33.2085 76.4135 38.0837 76.4135C42.2366 76.4135 45.3061 73.344 45.3061 68.4688C45.3061 64.7294 42.7603 62.8657 40.7701 61.4089C39.4931 60.474 38.4448 59.7066 38.4448 58.7186C38.4448 58.1769 38.6253 56.3713 41.6949 56.3713C43.8616 56.3713 45.4867 57.2741 45.4867 57.2741Z" fill="#8DB849"/>
<path d="M86.4739 62.1492C84.8489 61.2464 84.1266 60.5241 84.1266 59.6213C84.1266 58.3574 85.21 57.6352 87.0156 57.6352C89.0018 57.6352 90.8074 58.538 90.8074 58.538L92.2519 54.2045C92.2519 54.2045 90.988 53.1211 87.1962 53.1211C81.7793 53.1211 78.1681 56.1907 78.1681 60.5241C78.1681 63.052 79.9737 64.8576 82.1405 66.1215C83.9461 67.2049 84.6683 67.9271 84.6683 69.0105C84.6683 70.0939 83.7655 71.1772 81.9599 71.1772C79.4321 71.1772 76.9042 69.9133 76.9042 69.9133L75.4597 74.2468C75.4597 74.2468 77.6264 75.6913 81.4182 75.6913C86.8351 75.6913 90.8074 72.9828 90.8074 68.1077C90.8074 65.3993 88.8212 63.4131 86.4739 62.1492ZM108.322 52.9406C105.613 52.9406 103.447 54.2045 101.822 56.1907L104.169 43.9125H98.0298L92.0713 75.1496H98.2104L100.197 64.4965C100.919 60.5241 103.086 57.9963 105.072 57.9963C106.516 57.9963 107.058 58.8991 107.058 60.3436C107.058 61.2464 107.058 62.1492 106.877 63.052L104.53 75.3301H110.669L113.016 62.6909C113.197 61.4269 113.378 59.8019 113.378 58.7185C113.378 55.1073 111.572 52.9406 108.322 52.9406ZM124.031 70.8161C121.864 70.8161 121.142 69.0105 121.142 66.8438C121.142 63.4131 122.947 57.6352 126.197 57.6352C128.364 57.6352 129.086 59.4408 129.086 61.2464C129.086 65.2187 127.281 70.8161 124.031 70.8161ZM127.1 52.9406C119.697 52.9406 114.822 59.6213 114.822 67.0243C114.822 71.7189 117.711 75.5107 123.308 75.5107C130.531 75.5107 135.406 69.0105 135.406 61.4269C135.406 57.0935 132.878 52.9406 127.1 52.9406ZM145.156 70.9967C143.531 70.9967 142.628 70.0939 142.628 70.0939L143.712 64.3159C144.434 60.5241 146.42 57.9963 148.587 57.9963C150.393 57.9963 151.115 59.8019 151.115 61.4269C150.934 65.3993 148.587 70.9967 145.156 70.9967ZM151.115 52.9406C146.962 52.9406 144.615 56.5518 144.615 56.5518L144.976 53.3017H139.559C139.378 55.4684 138.837 58.8991 138.295 61.4269L133.961 83.8165H140.101L141.726 74.7885H141.906C141.906 74.7885 143.17 75.5107 145.517 75.5107C152.74 75.5107 157.434 68.1077 157.434 60.7047C157.434 56.7324 155.629 52.9406 151.115 52.9406ZM166.101 44.2737C164.115 44.2737 162.671 45.8987 162.671 47.8849C162.671 49.6905 163.754 50.9544 165.56 50.9544C167.546 50.9544 169.171 49.6905 169.171 47.3432C169.171 45.5376 167.907 44.2737 166.101 44.2737ZM157.615 75.1496H163.754L167.907 53.4823H161.768L157.615 75.1496ZM183.435 53.4823H179.102L179.282 52.3989C179.643 50.2322 180.907 48.4266 182.893 48.4266C183.977 48.4266 184.88 48.7877 184.88 48.7877L186.144 43.9125C186.144 43.9125 185.06 43.3708 182.893 43.3708C180.727 43.3708 178.56 43.9125 176.935 45.357C174.768 47.1626 173.865 49.6905 173.324 52.2183L173.143 53.3017H170.254L169.351 57.9963H172.24L168.99 75.1496H175.129L178.379 57.9963H182.532L183.435 53.4823ZM198.061 53.4823C198.061 53.4823 194.269 63.052 192.463 68.2883C192.283 66.6632 191.019 53.4823 191.019 53.4823H184.519L188.13 73.344C188.13 73.7051 188.13 74.0662 187.949 74.4273C187.227 75.8718 185.963 77.1357 184.699 78.0386C183.616 78.9414 182.171 79.483 181.268 79.8442L182.893 85.0804C184.157 84.8999 186.685 83.8165 188.852 81.8303C191.56 79.3025 194.269 75.1496 196.797 69.7327L204.2 53.6628L198.061 53.4823Z" fill="#192038"/>
</svg>
