<svg width="230" height="126" viewBox="0 0 230 126" fill="none" xmlns="http://www.w3.org/2000/svg">
<path d="M13.957 47.9349C13.957 47.9349 19.035 67.9247 19.8455 71.1694C20.7914 74.9565 22.4958 76.3503 27.4098 75.4103L30.5806 63.0167C31.3843 59.9383 31.9233 57.7435 32.4399 54.6119L32.5308 54.6119C32.8937 57.7743 33.4106 59.9475 34.0719 63.0275C34.0719 63.0275 35.3627 68.6539 36.0237 71.609C36.6864 74.5631 38.5308 76.425 43.3441 75.4114L50.8994 47.937L44.7994 47.937L42.2201 59.8155C41.5266 63.2731 40.8973 65.9748 40.4121 69.1379L40.3261 69.1379C39.8851 66.0063 39.3243 63.4117 38.6193 60.0429L35.9336 47.937L29.5779 47.937L26.7051 59.7379C25.8913 63.3239 25.13 66.2196 24.646 69.2754L24.5583 69.2754C24.0626 66.3976 23.4023 62.7583 22.6873 59.287C22.6873 59.287 20.9805 50.8464 20.3817 47.937L13.9576 47.9378L13.957 47.9349ZM72.1078 47.9349L72.1078 75.4093L77.9155 75.4093L77.9155 69.5752L77.9155 47.9336L72.1078 47.9336L72.1078 47.9349ZM153.904 47.9349L153.904 68.2032C153.904 70.9977 154.451 72.9555 155.622 74.1516C156.646 75.1977 158.331 75.8751 160.351 75.8751C162.068 75.8751 163.757 75.5623 164.553 75.2773L164.478 70.9173C163.886 71.0574 163.204 71.1695 162.272 71.1695C160.294 71.1695 159.63 69.9522 159.63 67.4431L159.63 59.6886L164.688 59.6886L164.688 54.4319L159.63 54.4319L159.63 47.935L153.903 47.935L153.904 47.9349ZM59.1289 54.304C55.5195 54.304 52.6544 55.2776 51.0927 56.1446L52.2356 59.9043C53.6649 59.0387 55.9407 58.3221 58.0956 58.3221C61.6633 58.3133 62.2466 60.2601 62.2466 61.5086L62.2466 61.8039C54.4726 61.7927 49.5621 64.377 49.5621 69.6447C49.5621 72.861 52.0618 75.875 56.4085 75.875C59.0842 75.875 61.322 74.8499 62.6631 73.2073L62.7946 73.2073C62.7946 73.2073 63.6827 76.7745 68.5755 75.4104C68.3185 73.9257 68.235 72.3427 68.235 70.4361L68.235 63.0965C68.235 58.4186 66.1559 54.3041 59.1289 54.3041L59.1289 54.304ZM93.8699 54.304C90.2357 54.304 88.6025 56.0733 87.6122 57.5745L87.5262 57.5745L87.5262 54.77L81.9837 54.77L81.9837 75.4106L87.8223 75.4106L87.8223 63.3057C87.8223 62.7382 87.8898 62.1382 88.096 61.6161C88.5798 60.3974 89.7601 58.9718 91.6446 58.9718C94.0004 58.9718 95.1028 60.8852 95.1028 63.6465L95.1028 75.4104L100.935 75.4104L100.935 63.159C100.935 62.6173 101.012 61.9649 101.178 61.4859C101.658 60.0996 102.93 58.9716 104.682 58.9716C107.07 58.9716 108.217 60.8517 108.217 64.1009L108.217 75.4104L114.053 75.4104L114.053 63.2538C114.053 56.8425 110.664 54.3041 106.839 54.3041C105.145 54.3041 103.808 54.7122 102.599 55.4252C101.583 56.0243 100.673 56.8754 99.8779 57.9961L99.7918 57.9961C98.8667 55.7716 96.6963 54.3041 93.8689 54.3041L93.8699 54.304ZM125.931 54.304C122.323 54.304 119.458 55.2776 117.895 56.1446L119.04 59.9043C120.468 59.0387 122.745 58.3221 124.899 58.3221C128.464 58.3133 129.048 60.2601 129.048 61.5086L129.048 61.8039C121.276 61.7927 116.365 64.377 116.365 69.6447C116.365 72.861 118.866 75.875 123.215 75.875C125.888 75.875 128.127 74.8499 129.465 73.2073L129.597 73.2073C129.597 73.2073 130.485 76.7745 135.379 75.4104C135.121 73.9257 135.039 72.3427 135.039 70.4361L135.039 63.0965C135.039 58.4186 132.959 54.3041 125.931 54.3041L125.931 54.304ZM150.178 54.304C147.942 54.304 145.398 55.6905 144.33 58.6625L144.167 58.6625L144.167 54.7697L138.912 54.7697L138.912 75.4103L144.903 75.4103L144.903 64.841C144.903 64.2708 144.939 63.7737 145.033 63.3178C145.476 61.1038 147.239 59.6885 149.769 59.6885C150.463 59.6885 150.961 59.7607 151.498 59.8354L151.498 54.4317C151.047 54.3442 150.739 54.3038 150.178 54.3038L150.178 54.304ZM62.4341 65.4615L62.4341 68.0365C62.4341 68.4174 62.3996 68.8104 62.2898 69.154C61.8403 70.5841 60.2981 71.7925 58.3703 71.7925C56.7631 71.7925 55.4863 70.9163 55.4863 69.0625C55.4863 66.2269 58.7355 65.4431 62.4343 65.4615L62.4341 65.4615ZM129.237 65.4615L129.237 68.0365C129.237 68.4174 129.201 68.8104 129.092 69.154C128.643 70.5841 127.101 71.7925 125.173 71.7925C123.566 71.7925 122.289 70.9163 122.289 69.0625C122.289 66.2269 125.538 65.4431 129.237 65.4615H129.237Z" fill="#007DC6"/>
<path d="M196.086 38.0002C194.211 38.0002 192.721 39.0061 192.721 40.2306L193.859 52.6168C193.985 53.363 194.936 53.9387 196.087 53.9387C197.239 53.9372 198.188 53.3621 198.316 52.6168L199.46 40.2306C199.46 39.0062 197.966 38.0003 196.088 38.0003L196.086 38.0002ZM177.53 47.9359C176.557 47.9581 175.451 48.666 174.748 49.8375C173.807 51.3975 173.974 53.1408 175.074 53.7524L186.808 59.002C187.541 59.2639 188.537 58.7638 189.113 57.809C189.113 57.8089 189.113 57.8086 189.113 57.8085C189.692 56.8489 189.648 55.7701 189.038 55.2915L178.44 48.1507C178.165 47.9975 177.855 47.9286 177.531 47.936L177.53 47.9359ZM214.641 47.9359C214.317 47.9285 214.008 47.9974 213.733 48.1505L203.134 55.2914C202.528 55.7699 202.483 56.8488 203.059 57.8083L203.06 57.8088C203.638 58.7636 204.631 59.2637 205.364 59.0018L217.103 53.7525C218.208 53.1409 218.366 51.3977 217.432 49.8376C216.726 48.6661 215.618 47.9582 214.645 47.936L214.641 47.9359ZM187.246 64.2777C187.095 64.2757 186.948 64.2983 186.81 64.3481L175.076 69.5913C173.975 70.2056 173.809 71.9495 174.749 73.5112C175.687 75.0681 177.34 75.8082 178.441 75.1977L189.039 68.0623C189.649 67.578 189.694 66.4994 189.115 65.5408L189.12 65.5429C188.651 64.7621 187.904 64.2861 187.246 64.2775L187.246 64.2777ZM204.93 64.2777C204.273 64.2863 203.528 64.7623 203.058 65.5431L203.062 65.541C202.486 66.4995 202.53 67.5781 203.137 68.0625L213.736 75.1978C214.835 75.8084 216.489 75.0683 217.431 73.5113C218.366 71.9496 218.207 70.2057 217.102 69.5915L205.366 64.3482C205.229 64.2984 205.082 64.2759 204.93 64.2779L204.93 64.2777ZM196.084 69.411C194.936 69.4123 193.986 69.9855 193.861 70.7298L192.722 83.1155C192.722 84.342 194.212 85.3458 196.087 85.3458C197.966 85.3458 199.459 84.342 199.459 83.1155L198.317 70.7298C198.189 69.9855 197.241 69.4124 196.088 69.411L196.084 69.411L196.084 69.411Z" fill="#FFC220"/>
</svg>
