<svg width="202" height="43" viewBox="0 0 202 43" fill="none" xmlns="http://www.w3.org/2000/svg">
<path fill-rule="evenodd" clip-rule="evenodd" d="M6.30933 0H61.4507C62.2794 -7.4025e-08 63.1001 0.163284 63.8658 0.480524C64.6314 0.797765 65.3271 1.26275 65.913 1.8489C66.4989 2.43506 66.9636 3.13091 67.2805 3.8967C67.5974 4.6625 67.7604 5.48322 67.76 6.312V27.3493C67.76 28.1778 67.5968 28.9981 67.2797 29.7634C66.9626 30.5287 66.4978 31.2241 65.9119 31.8098C65.326 32.3954 64.6304 32.8599 63.8649 33.1767C63.0995 33.4935 62.2791 33.6563 61.4507 33.656H41.6747L44.3813 40.3093L32.4347 33.656H6.30133C4.62984 33.6539 3.0275 32.9886 1.84607 31.8062C0.66465 30.6237 0.00070512 29.0208 0 27.3493V6.312C-1.49355e-07 4.63842 0.664646 3.03334 1.8478 1.84968C3.03095 0.666032 4.63575 0.000707049 6.30933 0Z" fill="#7D57A4"/>
<path d="M74.5231 12.9738C72.6796 14.8066 71.7578 17.1293 71.7578 19.9418C71.7578 22.9764 72.6716 25.4271 74.4991 27.2938C76.3267 29.1604 78.7169 30.0902 81.6698 30.0831C82.648 30.0593 83.6189 29.9078 84.5578 29.6324V25.1604C83.7409 25.4191 82.8917 25.5618 82.0351 25.5844C80.5685 25.5844 79.3951 25.092 78.5151 24.1071C77.6351 23.1222 77.196 21.7844 77.1978 20.0938C77.1978 18.524 77.6343 17.2298 78.5071 16.2111C78.9058 15.7246 79.4095 15.3347 79.9803 15.0705C80.5511 14.8064 81.1743 14.6748 81.8032 14.6858C82.7354 14.6924 83.6622 14.827 84.5578 15.0858V10.5924C83.5697 10.341 82.5533 10.2182 81.5338 10.2271C78.7089 10.2271 76.372 11.1426 74.5231 12.9738ZM93.7445 10.2271C91.1898 10.2271 89.1943 11.0769 87.7578 12.7764C86.3214 14.476 85.6103 16.8458 85.6245 19.8858C85.6245 23.1818 86.3356 25.7026 87.7578 27.4484C89.18 29.1942 91.2476 30.068 93.9605 30.0698C96.5827 30.0698 98.6023 29.196 100.019 27.4484C101.436 25.7009 102.149 23.2493 102.158 20.0938C102.158 16.9311 101.438 14.4973 99.9978 12.7924C98.5578 11.0875 96.4734 10.2324 93.7445 10.2271ZM95.9391 24.6271C95.7104 24.9998 95.3865 25.305 95.0008 25.5112C94.6151 25.7174 94.1815 25.8172 93.7445 25.8004C93.331 25.8127 92.9222 25.7094 92.5642 25.5021C92.2062 25.2948 91.9131 24.9918 91.7178 24.6271C91.2538 23.8484 91.0218 22.2902 91.0218 19.9524C91.0218 16.3133 91.94 14.4938 93.7765 14.4938C95.732 14.4938 96.7098 16.3346 96.7098 20.0164C96.7045 22.3026 96.4476 23.8395 95.9391 24.6271ZM115.856 10.7604L114.864 14.9951C114.607 16.0795 114.366 17.1906 114.142 18.3284L113.587 21.2618C113.054 18.3337 112.331 14.836 111.419 10.7684H104.979L102.56 29.6218H107.384L108.696 16.6298L111.99 29.6218H115.438L118.579 16.6271L119.942 29.5924H124.984L122.424 10.7604H115.856ZM138.928 10.7604L137.936 14.9951C137.679 16.0795 137.438 17.1906 137.214 18.3284L136.659 21.2618C136.126 18.3337 135.402 14.836 134.488 10.7684H128.051L125.624 29.6031H130.448L131.758 16.6111L135.054 29.6031H138.499L141.651 16.6271L143.014 29.5924H148.056L145.502 10.7604H138.928ZM154.584 22.1471H159.118V18.2271H154.584V14.7604H159.795V10.7604H149.491V29.6138H159.83V25.5791H154.584V22.1471ZM174.176 19.1738C174.868 18.0762 175.118 16.7579 174.878 15.4833C174.637 14.2087 173.924 13.0722 172.88 12.3018C171.492 11.2742 169.599 10.7604 167.2 10.7604H161.264V29.6138H166.36V21.0164H166.443L170.56 29.6031H175.942L171.872 21.1018C172.823 20.7155 173.629 20.0413 174.176 19.1738ZM166.36 18.8698V14.3924C167.568 14.4209 168.432 14.6235 168.955 15.0004C169.478 15.3773 169.739 15.9995 169.739 16.8671C169.739 18.1649 168.613 18.8324 166.36 18.8698ZM177.982 12.9738C176.133 14.8066 175.208 17.1293 175.208 19.9418C175.208 22.9764 176.124 25.4226 177.955 27.2804C179.786 29.1382 182.176 30.068 185.126 30.0698C186.107 30.0512 187.082 29.9041 188.024 29.6324V25.1604C187.208 25.4191 186.358 25.5618 185.502 25.5844C184.033 25.5844 182.859 25.092 181.979 24.1071C181.099 23.1222 180.657 21.7844 180.654 20.0938C180.654 18.524 181.091 17.2298 181.966 16.2111C182.365 15.7246 182.868 15.3347 183.439 15.0705C184.01 14.8064 184.633 14.6748 185.262 14.6858C186.197 14.6918 187.126 14.8264 188.024 15.0858V10.5924C187.034 10.3403 186.015 10.2175 184.992 10.2271C182.168 10.2271 179.831 11.1426 177.982 12.9738ZM194.515 25.5791V22.1471H199.048V18.2271H194.515V14.7604H199.726V10.7604H189.419V29.6138H199.758V25.5791H194.515Z" fill="black"/>
<path d="M3.40052 5.62706C3.60897 5.36457 3.87206 5.15137 4.17121 5.00251C4.47036 4.85365 4.79829 4.77276 5.13186 4.76555C6.53646 4.66714 7.34264 5.33452 7.5504 6.7677C8.41695 12.5809 9.34477 17.5156 10.3338 21.5718L16.3962 9.95612C16.9449 8.90763 17.6383 8.35296 18.4764 8.29213C19.691 8.20624 20.4502 8.98546 20.7538 10.6298C21.3244 13.8813 22.2011 17.0708 23.3721 20.1548C24.1002 13.0801 25.3157 7.96559 27.0186 4.81117C27.1829 4.45738 27.4399 4.15545 27.7618 3.93791C28.0838 3.72036 28.4586 3.59544 28.8458 3.5766C29.4762 3.52439 30.102 3.72174 30.5904 4.12679C30.8397 4.31644 31.0446 4.55899 31.1905 4.83727C31.3364 5.11554 31.4198 5.42274 31.4348 5.7371C31.4794 6.20109 31.3867 6.66801 31.1684 7.07903C30.0888 9.09728 29.2009 12.453 28.5049 17.1462C27.8176 21.6765 27.5637 25.2201 27.7431 27.7769C27.806 28.4036 27.6944 29.0356 27.4208 29.6019C27.288 29.8878 27.081 30.1322 26.8217 30.3093C26.5625 30.4865 26.2605 30.5898 25.9478 30.6084C25.218 30.662 24.4908 30.3158 23.7583 29.5751C21.1871 26.9181 19.145 22.9647 17.6321 17.7151C15.8564 21.2936 14.5246 23.9703 13.6367 25.7452C12.0119 28.8943 10.6197 30.5091 9.46019 30.5896C8.70728 30.6432 8.06625 30.0063 7.53708 28.6787C6.1165 25.034 4.59292 17.9826 2.96636 7.52455C2.90207 7.19529 2.90752 6.85607 2.98234 6.52909C3.05715 6.2021 3.19966 5.89472 3.40052 5.62706Z" fill="white"/>
<path d="M62.8569 10.0067C62.3999 9.17555 61.7668 8.45611 61.0026 7.89947C60.2384 7.34283 59.3618 6.96268 58.4353 6.78603C57.9413 6.68081 57.4379 6.62686 56.9331 6.625C54.2837 6.625 52.1191 8.01434 50.4392 10.793C49.0087 13.156 48.2641 15.8756 48.2897 18.6433C48.2897 20.7904 48.7336 22.6306 49.6215 24.164C50.078 24.996 50.7114 25.7161 51.4762 26.2728C52.241 26.8296 53.1184 27.2092 54.0457 27.3846C54.5385 27.4921 55.0411 27.547 55.5453 27.5483C58.2213 27.5483 60.3851 26.159 62.0365 23.3803C63.4669 21.0004 64.212 18.2666 64.1887 15.4844C64.1887 13.3373 63.7447 11.5114 62.8569 10.0067ZM59.3676 17.7388C58.9893 19.5639 58.2879 20.9389 57.2633 21.8639C56.4518 22.5993 55.7078 22.899 55.0312 22.763C54.3547 22.627 53.8122 22.0258 53.4038 20.9595C53.0909 20.1506 52.9257 19.2913 52.9164 18.4232C52.9138 17.7363 52.9816 17.051 53.1188 16.3781C53.3825 15.1875 53.8787 14.0617 54.5784 13.0662C55.4983 11.7046 56.4589 11.133 57.4604 11.3513C58.137 11.489 58.6786 12.0884 59.0852 13.1494C59.3971 13.9576 59.5614 14.8159 59.57 15.683C59.5735 16.3735 59.5056 17.0625 59.3676 17.7388Z" fill="white"/>
<path d="M45.521 10.0067C45.064 9.17555 44.4308 8.45611 43.6666 7.89947C42.9024 7.34283 42.0259 6.96268 41.0994 6.78603C40.6054 6.68081 40.102 6.62686 39.5971 6.625C36.946 6.625 34.7822 8.01434 33.106 10.793C31.6735 13.1552 30.9278 15.8751 30.9538 18.6433C30.9538 20.7904 31.3977 22.6306 32.2856 24.164C32.7414 24.9966 33.3745 25.7171 34.1394 26.274C34.9044 26.8308 35.7822 27.2101 36.7098 27.3846C37.2026 27.4921 37.7052 27.547 38.2094 27.5483C40.8872 27.5483 43.0518 26.159 44.7032 23.3803C46.1386 21.0017 46.8901 18.2681 46.8741 15.4844C46.8741 13.3373 46.4301 11.5114 45.5423 10.0067H45.521ZM42.0317 17.7388C41.6534 19.5674 40.9502 20.9442 39.9221 21.8693C39.1088 22.6047 38.3648 22.9044 37.69 22.7684C37.0152 22.6324 36.4745 22.0294 36.0679 20.9595C35.7549 20.1506 35.5898 19.2913 35.5804 18.4232C35.5778 17.7363 35.6457 17.051 35.7829 16.3781C36.0489 15.1883 36.5448 14.0629 37.2425 13.0662C38.1588 11.7082 39.1195 11.1383 40.1245 11.3566C40.8011 11.4944 41.3418 12.0938 41.7466 13.1548C42.0593 13.9628 42.2245 14.8212 42.2341 15.6884C42.2368 16.3753 42.169 17.0606 42.0317 17.7335V17.7388Z" fill="white"/>
</svg>
